<svg xmlns="http://www.w3.org/2000/svg" xmlns:xlink="http://www.w3.org/1999/xlink" width="500" zoomAndPan="magnify" viewBox="0 0 375 374.999991" height="500" preserveAspectRatio="xMidYMid meet" version="1.0"><defs><clipPath id="eb0d472694"><path d="M 3.839844 4.117188 L 156.792969 4.117188 L 156.792969 157.066406 L 3.839844 157.066406 Z M 3.839844 4.117188 " clip-rule="nonzero"/></clipPath><clipPath id="8e62c14fdf"><path d="M 80.316406 4.117188 C 38.082031 4.117188 3.839844 38.355469 3.839844 80.589844 C 3.839844 122.828125 38.082031 157.066406 80.316406 157.066406 C 122.550781 157.066406 156.792969 122.828125 156.792969 80.589844 C 156.792969 38.355469 122.550781 4.117188 80.316406 4.117188 Z M 80.316406 4.117188 " clip-rule="nonzero"/></clipPath><clipPath id="f4dc6bf948"><path d="M 217.800781 218.074219 L 370.75 218.074219 L 370.75 371.023438 L 217.800781 371.023438 Z M 217.800781 218.074219 " clip-rule="nonzero"/></clipPath><clipPath id="c18c01651b"><path d="M 294.277344 218.074219 C 252.039062 218.074219 217.800781 252.3125 217.800781 294.550781 C 217.800781 336.785156 252.039062 371.023438 294.277344 371.023438 C 336.511719 371.023438 370.75 336.785156 370.75 294.550781 C 370.75 252.3125 336.511719 218.074219 294.277344 218.074219 Z M 294.277344 218.074219 " clip-rule="nonzero"/></clipPath><clipPath id="a68510fbd4"><path d="M 0 0 L 117 0 L 117 114 L 0 114 Z M 0 0 " clip-rule="nonzero"/></clipPath><clipPath id="926a616bac"><path d="M -21.183594 33.085938 L 36.058594 -24.152344 L 133.542969 73.335938 L 76.304688 130.574219 Z M -21.183594 33.085938 " clip-rule="nonzero"/></clipPath><clipPath id="3bcfe28777"><path d="M 7.4375 4.46875 C 23.246094 -11.339844 48.871094 -11.339844 64.679688 4.46875 L 104.730469 44.519531 C 120.535156 60.324219 120.535156 85.953125 104.730469 101.757812 C 88.921875 117.566406 63.296875 117.566406 47.488281 101.757812 L 7.4375 61.707031 C -8.367188 45.902344 -8.367188 20.273438 7.4375 4.46875 Z M 7.4375 4.46875 " clip-rule="nonzero"/></clipPath><clipPath id="2f48dc4821"><path d="M 252 253 L 374 253 L 374 375 L 252 375 Z M 252 253 " clip-rule="nonzero"/></clipPath><clipPath id="e74aee81a1"><path d="M 235.824219 293.507812 L 293.066406 236.269531 L 390.550781 333.753906 L 333.3125 390.996094 Z M 235.824219 293.507812 " clip-rule="nonzero"/></clipPath><clipPath id="edeea4962f"><path d="M 264.445312 264.886719 C 280.25 249.082031 305.878906 249.082031 321.683594 264.886719 L 361.738281 304.9375 C 377.542969 320.746094 377.542969 346.375 361.738281 362.179688 C 345.929688 377.984375 320.304688 377.984375 304.496094 362.179688 L 264.445312 322.128906 C 248.636719 306.320312 248.636719 280.695312 264.445312 264.886719 Z M 264.445312 264.886719 " clip-rule="nonzero"/></clipPath></defs><rect x="-37.5" width="450" fill="#ffffff" y="-37.499999" height="449.999989" fill-opacity="1"/><rect x="-37.5" width="450" fill="#ffffff" y="-37.499999" height="449.999989" fill-opacity="1"/><path stroke-linecap="butt" transform="matrix(0.541998, 0.518399, -0.518399, 0.541998, 117.982972, 69.16597)" fill="none" stroke-linejoin="miter" d="M -0.000745312 50.00022 L 361.567636 50.001667 " stroke="#000000" stroke-width="100" stroke-opacity="1" stroke-miterlimit="4"/><g clip-path="url(#eb0d472694)"><g clip-path="url(#8e62c14fdf)"><path fill="#000000" d="M 3.839844 4.117188 L 156.792969 4.117188 L 156.792969 157.066406 L 3.839844 157.066406 Z M 3.839844 4.117188 " fill-opacity="1" fill-rule="nonzero"/></g></g><g clip-path="url(#f4dc6bf948)"><g clip-path="url(#c18c01651b)"><path fill="#000000" d="M 217.800781 218.074219 L 370.75 218.074219 L 370.75 371.023438 L 217.800781 371.023438 Z M 217.800781 218.074219 " fill-opacity="1" fill-rule="nonzero"/></g></g><g clip-path="url(#a68510fbd4)"><g clip-path="url(#926a616bac)"><g clip-path="url(#3bcfe28777)"><path fill="#ffffff" d="M -21.183594 33.085938 L 36.058594 -24.152344 L 133.320312 73.109375 L 76.082031 130.351562 Z M -21.183594 33.085938 " fill-opacity="1" fill-rule="nonzero"/></g></g></g><g clip-path="url(#2f48dc4821)"><g clip-path="url(#e74aee81a1)"><g clip-path="url(#edeea4962f)"><path fill="#ffffff" d="M 235.824219 293.507812 L 293.066406 236.269531 L 390.328125 333.53125 L 333.089844 390.769531 Z M 235.824219 293.507812 " fill-opacity="1" fill-rule="nonzero"/></g></g></g></svg>