<?xml version="1.0" encoding="UTF-8"?>
<svg version="1.1" xmlns="http://www.w3.org/2000/svg" width="355" height="431">
<path d="M0 0 C0.94037109 -0.05414063 1.88074219 -0.10828125 2.84960938 -0.1640625 C12.40499909 -0.34302632 19.8319021 3.395627 28.1875 7.5 C29.89399406 8.32126029 31.60096522 9.14152978 33.30834961 9.9609375 C37.9872503 12.21734441 42.65077885 14.50386489 47.30993652 16.80072021 C52.3138685 19.26736677 57.3233313 21.7227413 62.33203125 24.1796875 C63.29974457 24.65475739 64.26745789 25.12982727 65.26449585 25.61929321 C71.9708073 28.90978025 78.69057166 32.16846287 85.4375 35.375 C94.54370999 39.70336307 103.617986 44.09542498 112.6875 48.5 C122.00850417 53.02616796 131.33464923 57.53988222 140.6875 62 C142.48054919 62.85790482 144.27351543 63.71598301 146.06640625 64.57421875 C149.45559504 66.19638965 152.84698122 67.81375726 156.24169922 69.42431641 C159.96394217 71.19080017 163.68155504 72.96676771 167.39697266 74.74755859 C168.86274488 75.4481611 170.32999623 76.14567881 171.79882812 76.83984375 C192.33213374 86.54924494 192.33213374 86.54924494 196.125 94 C196.50527344 94.7115625 196.88554687 95.423125 197.27734375 96.15625 C199.45240644 101.75726981 199.35978148 107.59921978 199.390625 113.51953125 C199.39632507 114.3775383 199.40202515 115.23554535 199.40789795 116.11955261 C199.41731018 117.92905458 199.42386684 119.73857339 199.42773438 121.5480957 C199.43743267 124.29344059 199.46848877 127.03803376 199.5 129.78320312 C199.50653214 131.54947477 199.51178178 133.31575171 199.515625 135.08203125 C199.5279718 135.89170853 199.5403186 136.7013858 199.55303955 137.53559875 C199.52756455 144.16333027 198.79179859 150.12357411 194.64346313 155.5018158 C187.35792631 162.7197177 177.57275929 166.73587572 168.4765625 171.1796875 C166.65751134 172.08140066 164.83911116 172.98442814 163.02133179 173.88870239 C158.26435662 176.25109473 153.49938766 178.59687701 148.7322998 180.93878174 C142.92485999 183.7953992 137.12666039 186.6707113 131.32755089 189.54419136 C126.82049652 191.77718884 122.31199518 194.00707344 117.79873657 196.22750854 C116.97208496 196.63504868 116.14543335 197.04258881 115.29373169 197.46247864 C113.75151505 198.22269607 112.20852283 198.98134298 110.66461182 199.7381134 C107.71034208 201.19628964 104.93305321 202.6696312 102.1875 204.5 C102.77171219 204.79099579 103.35592438 205.08199158 103.95783997 205.38180542 C110.14186943 208.46259649 116.32438573 211.54640913 122.50610352 214.63183594 C124.80097871 215.77678799 127.09621503 216.92101656 129.3918457 218.06445312 C141.31951615 224.00613734 153.21545139 229.98655262 164.98278809 236.24066162 C169.01858618 238.37989955 173.06940501 240.44447163 177.20703125 242.3828125 C178.02107422 242.76566406 178.83511719 243.14851562 179.67382812 243.54296875 C181.26939812 244.28515664 182.87138591 245.01365597 184.47851562 245.73046875 C192.1489169 249.38894632 196.34279017 254.66560994 199.58708191 262.50985718 C200.71184276 266.2379839 200.59353801 269.97118459 200.55078125 273.8359375 C200.55127975 274.71472565 200.55177826 275.59351379 200.55229187 276.49893188 C200.54996181 278.34957145 200.54029673 280.20021481 200.52368164 282.05078125 C200.50012856 284.85966852 200.50312447 287.66760168 200.50976562 290.4765625 C200.50418625 292.28385974 200.49707474 294.09115304 200.48828125 295.8984375 C200.48919266 296.7268515 200.49010406 297.5552655 200.49104309 298.40878296 C200.38528979 307.25753506 199.11678479 315.62021917 193.1875 322.5 C189.38384828 325.68524064 185.11481847 327.58885825 180.51147461 329.35107422 C175.43053695 331.35813811 170.56657133 333.67353871 165.69140625 336.1328125 C164.81838364 336.56955292 163.94536102 337.00629333 163.04588318 337.45626831 C161.20712571 338.3771476 159.3693326 339.29995479 157.5324707 340.22460938 C154.79016599 341.60478485 152.04479987 342.9787 149.29882812 344.3515625 C140.78230489 348.61898188 132.30806241 352.94788836 123.90234375 357.4296875 C115.7440895 361.7695088 107.44431251 365.77232492 99.0995636 369.73927307 C91.06554169 373.56968805 83.1035325 377.52835517 75.1640625 381.55078125 C73.9861615 382.14607635 72.8082605 382.74137146 71.59466553 383.35470581 C66.78429886 385.78616298 61.97447519 388.21856537 57.17333984 390.66821289 C33.84607224 402.5618997 33.84607224 402.5618997 22.484375 406.8203125 C21.75441315 407.09712357 21.02445129 407.37393463 20.27236938 407.65913391 C12.90191445 410.26430629 5.95630984 410.21152039 -1.8125 409.5 C-2.82699219 409.47164063 -3.84148437 409.44328125 -4.88671875 409.4140625 C-12.2400232 408.85655706 -18.1128373 406.14624611 -24.65625 402.9375 C-25.64266983 402.45963547 -26.62908966 401.98177094 -27.645401 401.48942566 C-41.50532104 394.7468602 -55.2772381 387.82329941 -69.05426025 380.91345215 C-72.72488708 379.07298608 -76.39666847 377.23482644 -80.06835938 375.39648438 C-84.85518615 372.99959456 -89.6416554 370.60199523 -94.42738438 368.20291424 C-100.39048225 365.21366346 -106.35473828 362.22673794 -112.32055664 359.24291992 C-112.96586806 358.92006925 -113.61117949 358.59721857 -114.2760458 358.26458454 C-119.45963995 355.67271256 -124.65179716 353.09845501 -129.84765625 350.53125 C-134.1266731 347.59964425 -137.33358256 345.15871611 -139.8125 340.5 C-140.83910884 334.40319311 -140.72632602 328.37788701 -140.63671875 322.2109375 C-140.633812 320.42070747 -140.63343073 318.63047173 -140.63545227 316.84024048 C-140.63224438 313.09938839 -140.60538468 309.35971766 -140.56030273 305.61914062 C-140.50355273 300.83288404 -140.49545324 296.04809493 -140.50371075 291.26155663 C-140.50651236 287.5690661 -140.48888313 283.87690102 -140.46457863 280.18449783 C-140.45439339 278.41993001 -140.44927095 276.65532521 -140.44937706 274.890728 C-140.44539555 272.42307021 -140.41519419 269.95709324 -140.37768555 267.48974609 C-140.38276123 266.40484138 -140.38276123 266.40484138 -140.38793945 265.29801941 C-140.2719841 260.26145896 -138.94941781 257.39735857 -135.8125 253.5 C-133.62890625 251.7421875 -133.62890625 251.7421875 -131.375 250.375 C-128.98652926 248.9045328 -126.80880789 247.49682181 -124.6796875 245.6640625 C-120.53541969 242.53610015 -115.9956188 240.3457995 -111.375 238 C-103.5321557 233.96427144 -95.73198586 229.86948175 -88 225.625 C-81.93153346 222.29458102 -75.85663184 218.97770362 -69.7578125 215.703125 C-69.16323746 215.38378998 -68.56866241 215.06445496 -67.95606995 214.73544312 C-65.03911621 213.16937644 -62.12108245 211.60537662 -59.2019043 210.04345703 C-58.15172119 209.47997559 -57.10153809 208.91649414 -56.01953125 208.3359375 C-55.0860083 207.83626465 -54.15248535 207.3365918 -53.19067383 206.82177734 C-50.66455871 205.45960774 -50.66455871 205.45960774 -47.8125 203.5 C-58.51799022 197.71907002 -69.34345083 192.21702562 -80.2786026 186.88653564 C-82.36678006 185.86757434 -84.45329615 184.84529129 -86.53924561 183.82177734 C-87.23874706 183.47855438 -87.93824852 183.13533142 -88.65894699 182.78170776 C-90.08553986 182.08156614 -91.51207612 181.38130916 -92.93855667 180.68093872 C-96.56503482 178.90206541 -100.19525666 177.13165957 -103.83349609 175.37695312 C-107.4184165 173.64727901 -110.9918242 171.89559988 -114.5587883 170.12921143 C-115.89830205 169.4707172 -117.24166719 168.81998805 -118.5891304 168.17791748 C-128.40686771 163.49286915 -136.95463648 158.24838525 -141.35839844 147.84960938 C-142.38699424 141.2990997 -142.09894517 134.52359899 -142.078125 127.90625 C-142.07947472 126.38985126 -142.08141781 124.87345294 -142.08392334 123.35705566 C-142.08686016 120.18998058 -142.08262363 117.02301886 -142.07324219 113.85595703 C-142.06184848 109.81454695 -142.06841571 105.77340261 -142.08038712 101.73200226 C-142.08764483 98.60400421 -142.08529991 95.47606824 -142.08013153 92.34806824 C-142.07880583 90.85865751 -142.08040452 89.36924098 -142.08509064 87.87983704 C-142.13401179 67.96491539 -142.13401179 67.96491539 -136.48828125 61.90429688 C-132.83115265 58.83964015 -128.56421539 56.86106283 -124.3125 54.75 C-123.17522461 54.1727417 -122.03794922 53.5954834 -120.86621094 53.00073242 C-116.52845309 50.80650572 -112.17100413 48.65265038 -107.8125 46.5 C-106.88074951 46.03926086 -105.94899902 45.57852173 -104.98901367 45.1038208 C-91.61096683 38.49111145 -78.21140958 31.92286658 -64.79968262 25.37876892 C-58.44077048 22.27535575 -52.08660674 19.16265454 -45.73919678 16.03578186 C-42.10809816 14.24740491 -38.4748452 12.46343588 -34.84118652 10.68026733 C-33.16909365 9.85848797 -31.49793309 9.03480862 -29.82775879 8.20913696 C-27.54402293 7.08065052 -25.25687976 5.95938766 -22.96875 4.83984375 C-22.3098175 4.51198883 -21.65088501 4.18413391 -20.97198486 3.84634399 C-13.99997643 0.45496268 -7.62843328 0.18008105 0 0 Z M-29.8125 86.5 C-30.53195801 86.84949707 -31.25141602 87.19899414 -31.99267578 87.55908203 C-45.488556 94.13545232 -58.68136792 101.22627193 -71.8125 108.5 C-69.47696765 110.05702157 -67.29220776 111.32343718 -64.79785156 112.57202148 C-63.99059631 112.97720505 -63.18334106 113.38238861 -62.35162354 113.79985046 C-61.04061676 114.45386589 -61.04061676 114.45386589 -59.703125 115.12109375 C-58.79254333 115.57704422 -57.88196167 116.03299469 -56.94378662 116.50276184 C-53.98452299 117.98335223 -51.0236237 119.4606336 -48.0625 120.9375 C-47.05864258 121.4389856 -46.05478516 121.94047119 -45.02050781 122.45715332 C-33.13032531 128.39604581 -21.23139734 134.30530588 -9.21118164 139.97753906 C-2.05024646 143.35938268 5.02747789 146.89698546 12.07617188 150.50683594 C12.85154297 150.90032227 13.62691406 151.29380859 14.42578125 151.69921875 C15.10680908 152.04815186 15.78783691 152.39708496 16.48950195 152.7565918 C18.18391626 153.63368688 18.18391626 153.63368688 20.1875 153.5 C17.43419993 156.85139522 13.70256259 158.36470064 9.875 160.1875 C4.34297079 162.89444817 -1.12964803 165.67089699 -6.5 168.6875 C-7.59699219 169.29980469 -8.69398438 169.91210938 -9.82421875 170.54296875 C-14.18651039 173.3998421 -17.57041982 176.87002884 -20.5625 181.125 C-20.96984375 181.69476563 -21.3771875 182.26453125 -21.796875 182.8515625 C-25.00853518 188.06433403 -23.99847896 194.56902254 -23.99780273 200.4765625 C-23.99997092 202.59656406 -24.01808456 204.71602924 -24.03710938 206.8359375 C-24.29142584 220.63886164 -24.29142584 220.63886164 -18.57470703 232.8203125 C-14.69459073 236.51873314 -9.91528099 238.93079793 -5.25 241.5 C-3.18619792 242.66666667 -1.12239583 243.83333333 0.94140625 245 C1.96121582 245.57105469 2.98102539 246.14210938 4.03173828 246.73046875 C7.32893446 248.57930659 10.62130128 250.43511986 13.90234375 252.3125 C14.89226318 252.87582031 15.88218262 253.43914062 16.90209961 254.01953125 C19.1875 255.5 19.1875 255.5 20.1875 257.5 C19.35710205 257.74637207 18.5267041 257.99274414 17.67114258 258.24658203 C13.7147051 259.67011206 10.13068297 261.55108987 6.44921875 263.5546875 C-2.65825476 268.42585896 -11.86657948 273.08029375 -21.10546875 277.6953125 C-21.8274155 278.05609642 -22.54936226 278.41688034 -23.29318619 278.78859711 C-27.76503136 281.02280238 -32.23839154 283.25395971 -36.71221924 285.48419189 C-40.56866673 287.40721994 -44.42392494 289.33262932 -48.27929688 291.2578125 C-55.78923127 295.00748238 -63.30043629 298.75459781 -70.8125 302.5 C-67.62626511 305.09175445 -64.61919914 307.29053004 -60.9609375 309.1640625 C-60.03692139 309.64149902 -59.11290527 310.11893555 -58.16088867 310.61083984 C-57.17967041 311.1105127 -56.19845215 311.61018555 -55.1875 312.125 C-53.10765675 313.19189744 -51.02823554 314.25961797 -48.94921875 315.328125 C-47.9132959 315.85986328 -46.87737305 316.39160156 -45.81005859 316.93945312 C-43.08769812 318.35673022 -40.39319466 319.81243029 -37.70703125 321.296875 C-30.03296949 325.52079046 -22.41543101 329.31485921 -14.125 332.1875 C-13.40658936 332.4438623 -12.68817871 332.70022461 -11.94799805 332.96435547 C-6.80411975 334.62336013 -3.12851244 334.42689448 2.1875 333.5 C3.93706708 333.3887987 5.68705112 333.28382973 7.4375 333.1875 C18.53346438 332.15888339 28.46417413 327.18626979 38.328125 322.30078125 C39.54729624 321.70019715 40.7665152 321.09970991 41.98577881 320.49931335 C44.51982746 319.24862648 47.0503881 317.9911718 49.57910156 316.72973633 C52.79264131 315.12836513 56.01834497 313.55331958 59.247715 311.98417377 C61.76327765 310.75635858 64.26947161 309.5102789 66.77355194 308.25923729 C68.52645279 307.38893609 70.28854454 306.53722379 72.05084229 305.68611145 C80.52300042 301.40243554 86.23421105 296.37351041 91.1640625 288.23828125 C92.67774807 282.70928472 92.62075391 277.39314688 92.5625 271.6875 C92.57990234 270.00043945 92.57990234 270.00043945 92.59765625 268.27929688 C92.56291975 258.31571002 91.54281199 249.81270023 84.41845703 242.38085938 C79.92938083 238.59624096 74.80044196 235.97316743 69.625 233.25 C68.43015003 232.60612912 67.23614926 231.96068008 66.04296875 231.3137207 C63.61755697 230.00161169 61.18774041 228.69833279 58.75341797 227.40283203 C54.34611986 225.0557281 49.96389484 222.66318925 45.58227539 220.26855469 C43.69141239 219.23581211 41.79874389 218.20636653 39.90405273 217.18066406 C39.05915283 216.72272461 38.21425293 216.26478516 37.34375 215.79296875 C36.60962891 215.3961792 35.87550781 214.99938965 35.11914062 214.59057617 C33.42978311 213.63678951 31.80168568 212.57612379 30.1875 211.5 C30 208.375 30 208.375 30.1875 205.5 C31.24138916 204.97567383 32.29527832 204.45134766 33.38110352 203.91113281 C37.31638144 201.95259061 41.25030439 199.99133991 45.18383789 198.02929688 C46.88171542 197.18286188 48.57995235 196.33714739 50.27856445 195.4921875 C52.7296436 194.27275945 55.1793893 193.05068749 57.62890625 191.828125 C58.38023331 191.45504211 59.13156036 191.08195923 59.90565491 190.6975708 C74.11469266 183.59379699 86.65778517 175.92490313 94.1875 161.5 C97.94392798 149.40022964 96.6760249 131.84156868 91.1875 120.5 C86.24368225 112.80745395 80.813948 108.43998593 72.65234375 104.51953125 C71.65602432 104.01757736 70.6597049 103.51562347 69.63319397 102.99845886 C66.47445633 101.41392828 63.30050983 99.86309392 60.125 98.3125 C58.02301717 97.26321119 55.92209544 96.21179392 53.82226562 95.15820312 C47.96446858 92.22941973 42.08163386 89.3548168 36.1875 86.5 C35.39555237 86.11397614 34.60360474 85.72795227 33.78765869 85.33023071 C31.72826685 84.3288461 29.6644189 83.3376263 27.59765625 82.3515625 C26.49687744 81.8251416 25.39609863 81.2987207 24.26196289 80.75634766 C5.52815588 73.10097 -12.62991974 78.09440981 -29.8125 86.5 Z " fill="#000000" transform="translate(149.8125,15.5)"/>
</svg>
