<svg xmlns="http://www.w3.org/2000/svg" xmlns:xlink="http://www.w3.org/1999/xlink" width="500" zoomAndPan="magnify" viewBox="0 0 375 374.999991" height="500" preserveAspectRatio="xMidYMid meet" version="1.0"><path fill="#e53935" d="M 8.964844 102.414062 L 184.195312 14.988281 L 187.449219 13.367188 L 190.699219 14.988281 L 365.929688 102.414062 L 369.980469 104.4375 L 369.980469 160.25 L 180.148438 281.214844 L 4.917969 160.25 L 4.917969 104.4375 Z M 8.964844 102.414062 " fill-opacity="1" fill-rule="nonzero"/><path fill="#ffffff" d="M 88.878906 113.285156 L 286.015625 113.285156 L 286.015625 310.417969 L 88.878906 310.417969 Z M 88.878906 113.285156 " fill-opacity="1" fill-rule="evenodd"/><path fill="#c62828" d="M 187.449219 248.226562 L 359.425781 162.410156 L 369.980469 157.144531 L 369.980469 361.527344 L 4.917969 361.527344 L 4.917969 157.144531 L 15.46875 162.410156 Z M 187.449219 248.226562 " fill-opacity="1" fill-rule="nonzero"/><path fill="#bdbdbd" d="M 114.414062 142.492188 L 260.460938 142.492188 L 260.460938 157.09375 L 114.414062 157.09375 Z M 114.414062 142.492188 " fill-opacity="1" fill-rule="nonzero"/><path fill="#bdbdbd" d="M 144.832031 178.996094 L 230.042969 178.996094 L 230.042969 193.597656 L 144.832031 193.597656 Z M 144.832031 178.996094 " fill-opacity="1" fill-rule="nonzero"/></svg>