<?xml version="1.0" encoding="utf-8"?>
<!-- Generator: Adobe Illustrator 24.0.2, SVG Export Plug-In . SVG Version: 6.00 Build 0)  -->
<svg version="1.1" id="Capa_1" xmlns="http://www.w3.org/2000/svg" xmlns:xlink="http://www.w3.org/1999/xlink" x="0px" y="0px"
	 viewBox="0 0 1280 1280" style="enable-background:new 0 0 1280 1280;" xml:space="preserve">
<style type="text/css">
	.st0{fill:#030910;}
	.st1{fill:#F5F5AB;}
	.st2{fill:#EFE0D4;}
	.st3{fill:#3D6EF1;}
</style>
<g>
	<path class="st0" d="M1049.78,1077.47c6.1,3.28,11.57,5.76,16.55,8.98c25.55,16.53,29.72,42.18,10.76,65.73
		c-7.33,9.1-16.01,16.87-25.54,23.57c-22.53,15.84-49.54,22.76-73.22,36.47c-5.41,3.14-13.52,4.49-19.55,3.08
		c-11.05-2.61-19.74,0.26-29.41,5.05c-28.46,14.1-54.44,8.81-77.7-12.27c-5.36-4.85-11.12-9.26-17.21-14.31
		c-2.34,3.63-5.38,8.63-8.69,13.45c-21.5,31.33-48.93,54.24-87.22,62.13c-26.33,5.42-51.11,1.89-73.94-12.37
		c-5.78-3.61-9.46-5.17-15.36,0.34c-6.7,6.24-15.86,9.04-24.8,11.25c-26.22,6.48-52.13,4.56-77.74-3.41
		c-15.71-4.88-27.46-15.46-38.33-27.49c-9.08,6.98-17.44,14.16-26.53,20.26c-29.28,19.63-61.39,26.45-96.08,19.37
		c-22.98-4.69-42.38-15.8-56.32-34.88c-4.35-5.95-8.35-7.2-15.25-5.86c-62.54,12.12-138.88-49.99-108.78-131.93
		c8.51-23.15,24.22-39.67,49.96-43.27c7.73-1.08,9.81-3.78,9.43-11.54c-1.24-25.47,5.17-48.71,24.47-66.55
		c6.66-6.15,4.31-11.22,1.92-17.81c-12.31-33.85-24.93-67.62-32.61-102.95c-10.01-46.09-16.52-92.66-18.39-139.79
		c-0.7-17.72,1.31-35.32,5.2-52.77c4.1-18.36,15.48-28.53,33.21-32.36c26.56-5.73,53.27-7.18,80.09-1.87
		c16.67,3.3,33.3,6.86,50.43,10.4c2.77-8.94,1.97-16.86,2.25-24.62c3.92-106.26,20.76-210.33,54.66-311.22
		c22.49-66.96,52.34-130.34,97.81-185.36c13.72-16.6,28.88-31.59,46.61-43.82c6.52-4.5,13.23-8.92,20.38-12.25
		c21.97-10.23,42.95-10.99,63.6,4.9c17.8,13.7,31.95,29.98,43.46,49.03c17.18,28.43,29.27,59.14,39.73,90.41
		c24.23,72.4,47.27,145.18,60.5,220.63c9.4,53.62,15.29,107.67,20.89,161.77c0.62,5.99-0.35,12.32,3.16,17.87
		c5.37,2.22,7.53-2.76,10.57-5.04c18.59-13.98,37.39-27.54,59.01-36.62c10.17-4.27,20.54-7.61,31.53-9.28
		c25.79-3.91,42.23,5.68,50.48,30.93c8.79,26.89,13.82,54.61,13.24,82.92c-1.58,77.16-8.23,153.77-27.15,228.89
		c-0.6,2.37-0.77,4.9-1.7,7.12c-3.63,8.75-1.21,12.84,8.47,14.93c55.41,11.97,83.4,83.97,53.4,132.34
		C1056.57,1065.23,1053.46,1071.04,1049.78,1077.47z M470.49,893.12c-0.45,7.94-0.75,14-1.13,20.07
		c-2.04,32.27-10.15,62.56-28.56,89.68c-8.84,13.02-16.08,13.58-26.53,1.16c-22.62-26.84-55.91-35.06-87.47-21.6
		c-38.38,16.37-52.27,53.76-33.24,89.92c2.44,4.64,4.38,8.86,0.12,13.31c-4.03,4.2-8.83,3.98-13.4,1.41
		c-12.04-6.78-24.09-8.62-36.37-0.88c-7.98,5.03-13.57,12.17-17.65,20.61c-12.94,26.78-7.95,61.5,12.14,84.03
		c20.39,22.87,55.86,32.55,83.5,22.8c13.11-4.63,14.6-4.53,19.02,7.66c4.25,11.73,12.55,19.41,22.43,25.67
		c17.12,10.85,36.02,14.39,56.14,12.6c30.91-2.74,55.14-18.06,76.62-39.28c12.1-11.95,18.4-11.56,27.54,2.47
		c9.33,14.31,22.26,22.52,38.35,25.96c17.44,3.72,35.1,4.75,52.83,1.45c7.29-1.36,13.97-4.26,20.61-7.4
		c4.97-2.36,8.53-4.9,4.37-11.02c-1.3-1.91-1.71-4.58-2.02-6.96c-0.77-6,0.74-11.27,7.15-13.07c5.66-1.59,9.19,1.81,11.44,6.72
		c10.1,22.05,29.25,29.91,51.53,32.33c26.25,2.85,49.55-5.15,70.18-21.05c17.72-13.66,31.21-30.87,40.66-51.2
		c2.06-4.42,3.79-9.1,6.5-13.1c6.24-9.23,13.91-9.27,20.43-0.07c3.51,4.95,5.78,10.78,9.18,15.82c18.6,27.55,44.34,33.67,73.12,17.5
		c11.39-6.4,21.15-14.45,26.7-26.77c2.89-6.4,6.59-12.41,15.16-9.42c6.27,2.19,6.95,8.76,2.7,19.08c-1.64,3.98-5.4,7.38-3.96,17.94
		c20.19-22.62,47.58-23.95,68.7-38.32c8.1-5.51,15.65-11.79,22.11-19.19c14.35-16.46,11.17-31.38-8.64-41.18
		c-2.17-1.08-4.54-1.83-6.88-2.49c-18.27-5.15-19.66-18.78-10.94-32.84c4.82-7.77,9.74-15.6,13.47-23.92
		c17.72-39.5-6.32-86.91-48.5-95.77c-24.47-5.14-48.52-2.99-71.91,5.9c-18.4,6.99-35.59,15.44-48.74,31.17
		c-8.78,10.51-13.6,9.28-19.32-3.29c-2.38-5.22-6.21-9-9.55-13.28c-21.2-27.13-36.4-56.51-34.96-92.21c0.1-2.51-0.4-4.82-4.18-6.65
		c-18.43,8.97-38.9,14.61-59.73,19.57c-35.74,8.52-72.18,12.21-108.43,16.69C584.58,910.64,527.89,914.37,470.49,893.12z
		 M568.88,697.88c36.92,2.34,66.59-2.37,96.3-5.97c58.21-7.06,110.27-30.27,159.58-60.92c12.42-7.72,16.95-16.98,14.87-31.8
		c-5.53-39.33-9.4-78.88-14.44-118.28c-9.25-72.4-28.22-142.51-50.41-211.86c-2.45-7.65-6.53-11.96-13.8-15.46
		c-27.56-13.25-56.94-17.76-86.95-20.07c-54.69-4.2-105.24,9.86-153.87,33.71c-13.88,6.81-24.77,14.76-28.55,30.73
		c-2.1,8.85-6.44,17.15-9.21,25.87c-33.17,104.44-48.87,211.73-52.1,321.05c-0.23,7.64,2.58,13.09,8.84,16.79
		c5.77,3.41,11.72,6.55,17.76,9.46C494.43,689.14,534.11,697.87,568.88,697.88z M864.62,737.35c-2.57,21.78-0.27,44.13-6,65.49
		c-4.04,15.05-4.33,28.11,7.19,40.31c4.43,4.69,7.05,11.45,9.35,17.69c7.8,21.17,16.28,42.1,22.14,63.95
		c3.9,14.55,4.02,14.61,17.32,9.3c14.25-5.68,28.86-10.11,44.24-10.72c18.37-0.72,15.75-0.53,19.94-17.29
		c19.51-77.96,27.57-157.3,27.42-237.57c-0.04-22.2-4.31-43.67-10.46-64.83c-5.82-20.04-13.61-24.95-33.57-20.84
		c-7.11,1.46-14.07,4.03-20.82,6.78c-25.78,10.49-47.62,26.96-68.35,45.21c-7.43,6.54-10.58,13.58-10.22,23.82
		C863.73,684.87,866.42,711.06,864.62,737.35z M408.81,727.42c-0.36-7.94-0.45-15.9-1.14-23.8c-1.05-12.05,5.28-27-2.58-35.41
		c-7.61-8.14-22.85-6.62-34.62-9.74c-27.06-7.15-54.13-8.08-81.67-2.84c-14.3,2.72-22.49,9.5-25.17,24.45
		c-3.38,18.86-3.98,37.66-2.62,56.59c2.76,38.42,8.07,76.5,15.8,114.26c7.26,35.45,19.63,69.28,31.82,103.18
		c2.04,5.66,3.8,12.6,12.52,8.82c16.79-7.28,34.29-8.38,52.14-6.14c6.49,0.81,8.9-1.8,8.83-7.98c-0.13-12.22-0.33-24.45-0.06-36.67
		c0.71-31.89,5.31-62.41,32.2-84.28c4.61-3.75,4.91-8.36,3.48-13.2C409.31,786.12,410.11,756.68,408.81,727.42z M515.11,245.63
		c79.53-39,160.67-43.24,242.85-16.75c2.69-2.42,2.16-4.34,1.62-5.94c-11.39-33.59-23.89-66.68-43.12-96.78
		c-7.29-11.41-15.55-22.09-26.37-30.25c-22.52-16.99-33.26-19.72-59.9-3.98c-9.39,5.55-18.31,12.35-26.24,19.85
		C564.33,149.28,536.71,194.98,515.11,245.63z M494.58,707.47c0.84,23.38,1.39,44.5,4.31,65.68c4.59,33.22,8.7,66.49,14.98,99.46
		c1.72,9.01,5.36,14.23,15.56,13.93c10.34-0.3,20.72,0.94,31.1,1.11c12.34,0.2,13.17-0.47,11.28-12.09
		c-7.94-48.79-12.49-97.99-17.45-147.13c-0.84-8.36-4.16-12.07-12.12-12.67C527.03,714.62,512.18,711.24,494.58,707.47z
		 M709.9,704.84c-14.57,2.24-28.4,4.34-42.22,6.5c-13.99,2.19-14.18,2.22-13.82,17.6c0.88,37.84,1.91,75.68,2.98,113.51
		c0.24,8.54,1.12,17.07,1.3,25.62c0.21,9.65,4.93,12.68,14.05,11.04c12-2.16,24.04-4.34,36.15-5.67c9.23-1.01,10.63-6.26,9.72-13.89
		c-3.9-32.86-1.53-65.91-2.63-98.85C714.81,742.45,715.82,724.1,709.9,704.84z M736.75,867.87c16.25-2.71,28-5.47,39.73-8.85
		c10.79-3.1,14.08-8.84,13.82-19.75c-1.01-42.73-1.18-85.48-1.67-128.22c-0.11-9.16-0.24-18.32-0.39-27.47
		c-0.1-5.96-3.18-7.44-8.34-5.31c-14.09,5.81-28.07,11.93-42.26,17.47c-5.88,2.3-6.8,6.4-6.09,11.63
		c5.46,40.05,4.49,80.37,5.18,120.62C736.93,840.72,736.75,853.47,736.75,867.87z M573.62,717.27c4.47,49.42,9.12,95.5,15.92,141.33
		c4.67,31.48,4.98,30.98,36.52,26.44c9.97-1.44,13.4-5.01,12.5-15c-2.3-25.52-3.59-51.09-3.39-76.76
		c0.17-21.35-0.45-42.72-1.14-64.07c-0.38-11.78-1.2-12.05-12.84-11.97C606.02,717.35,590.84,717.27,573.62,717.27z M494.02,878.88
		c-3.46-21.78-7.03-42.04-9.85-62.41c-4.93-35.62-8.98-71.34-10.42-107.3c-0.21-5.15-0.59-9.67-6.11-11.99
		c-12.22-5.13-24.39-10.37-37.01-15.74c-0.89,2.55-1.95,4.14-1.92,5.72c0.93,45.63-0.39,91.23,11.11,136.27
		C447.34,852.84,465.22,869.07,494.02,878.88z M810.56,836.66c5.78,1.83,7.89-0.79,10.18-2.54c15-11.47,17.75-28.33,19.85-45.47
		c5.58-45.57,3.29-91.28,2.55-136.97c-0.04-2.52-0.5-4.78-3.98-5.81c-7.38,4.46-14.94,9.62-23.02,13.75
		c-6.91,3.53-8.99,8.01-8.7,15.9c1.48,39.57,2.25,79.18,3.08,118.77C810.81,808.65,810.56,823.02,810.56,836.66z M426.82,845.27
		c-15.77,12.71-21.13,27.75-22.81,44.48c-1.71,17.02,0.48,34.37-1.6,51.14c-2.54,20.55,5.93,33.29,21.99,43.23
		c0.88,0.55,2.21,0.38,3.33,0.54c19.26-25.86,22.8-71.05,21.85-96.42c-0.26-6.91-2.7-12.57-8.4-17.35
		C434.09,864.94,429.68,856.78,426.82,845.27z M840.23,844.26c-1.99,2.54-3.52,3.76-4.07,5.32c-10.51,30.03,6.24,88.05,30.99,107.7
		c4.57,3.63,12.47,0.47,13.72-6.04c0.66-3.43,0.01-7.29-0.78-10.8c-6.16-27.4-16.37-53.46-27.21-79.25
		C850.37,855.19,847.29,848.99,840.23,844.26z"/>
	<path class="st0" d="M1092.76,0.01c7.56,0.55,16.11,0.47,24.37,3.25c13.44,4.53,15.73,11.98,6.51,22.82
		c-2.34,2.75-5.33,4.99-8.21,7.22c-40.42,31.26-32,89.7,12.89,114.08c4.8,2.61,10.23,4.18,14.75,7.17
		c6.91,4.57,7.23,12.37,0.39,16.28c-31.5,18.02-64.24,29.58-101.11,17.9c-47.81-15.14-72.75-62.33-58.12-110.32
		C998.43,31.87,1042.95-0.58,1092.76,0.01z M1114.12,163.07c-25.48-17.57-40.44-39.1-44.25-67.07
		c-3.94-28.87,7.04-53.27,27.48-75.45c-41.73-0.72-76.05,20.74-90.66,54.63c-18.36,42.6,3.36,85.79,48.52,96.21
		C1074.28,175.79,1092.6,172.98,1114.12,163.07z"/>
	<path class="st0" d="M989.04,413.85c-3.28-12.48-7.08-24.65-9.6-37.09c-2.66-13.18,5.76-19.74,18.33-14.4
		c7.24,3.08,13.75,7.83,20.77,11.47c14.94,7.77,12.89,11.25,25.57-2.95c1.22-1.36,2.52-2.66,3.87-3.89
		c5.15-4.71,10.75-8.67,17.98-4.94c6.83,3.53,8.53,10.07,8.05,17.14c-0.45,6.67-1.31,13.33-2.29,19.95
		c-0.81,5.42-1.72,10.87-3.22,16.12c-1.54,5.39-1.17,9.46,4.5,12.04c2.19,0.99,4.19,2.52,6.08,4.04c5.75,4.62,12.08,9.29,9.7,17.96
		c-2.11,7.68-9.16,9.94-15.8,10.28c-17.23,0.9-27.85,9.54-33.9,25.29c-1.7,4.43-5.04,8.33-8.07,12.11
		c-3.56,4.44-8.02,7.88-14.2,5.75c-5.69-1.96-8.88-6.47-9.62-12.3c-0.84-6.64-1.33-13.35-1.57-20.04c-0.23-6.45-2.76-9.73-9.6-10.76
		c-8.98-1.36-18.09-3.19-26.56-6.35c-13.05-4.87-14.81-16.63-3.78-25.22C972.78,422.53,981.12,418.59,989.04,413.85z
		 M1026.71,467.44c6.03-14.51,11.18-24.08,25.11-23.56c-16.33-16.22,3.13-32.14-2.5-47.51c-16.54,16.35-29.66-2-44.71-5.56
		c0.98,9.82,5.14,16.66,7.71,24.02c4.21,12.04,2.84,14.8-9.18,18.47c-3,0.92-6.84-0.31-10.39,5.06
		C1008.49,441.19,1024.7,442.91,1026.71,467.44z"/>
	<path class="st0" d="M205.45,420.89c9.25,0.06,15.72,5.96,22.74,10.76c14.14,9.66,14.15,9.63,27.43-0.76
		c2.4-1.88,4.74-3.89,7.34-5.46c11.68-7.1,19.81-2.68,20.68,11.2c0.15,2.42,0,4.89-0.27,7.32c-0.68,6.05,1.68,9.08,8.01,9.24
		c5.48,0.13,11.06,0.33,16.4,1.44c11.44,2.37,14.79,12.16,6.15,19.98c-8.07,7.3-17.31,13.66-26.88,18.86
		c-9.95,5.41-15.57,12.56-17.47,23.73c-1.21,7.11-4.19,13.97-6.86,20.75c-2.36,5.98-6.34,10.7-13.52,10.42
		c-7.04-0.28-10.58-5.31-13.31-11.05c-0.52-1.1-1.15-2.26-1.24-3.43c-1.49-19.17-13.18-23.18-29.81-20.49
		c-2.85,0.46-6.11-0.4-8.96-1.33c-11.78-3.83-14.74-12.8-7.4-22.57c2.17-2.89,4.77-5.75,7.78-7.68c6.29-4.03,6.79-8.82,4.72-15.62
		c-3.01-9.89-5.48-20.06-6.89-30.28C192.72,426,197.1,421.14,205.45,420.89z M280.15,474.49c-11.45-3.44-15.56-11.32-18.6-22.04
		c-15,15.84-28.38,6.83-42.6-1.08c-0.66,14.93,16.26,25.97,2.43,39.79c17.7,1.42,17.56,1.1,29.41,18.16
		C250.37,489.02,265.27,483.11,280.15,474.49z"/>
	<path class="st0" d="M385.78,51.92c-0.2,2.73,0.02,4.66-0.51,6.36c-4.62,14.72-2.88,25.42,12.68,34.24
		c13.05,7.39,10.83,24.29-3.89,27.92c-24.03,5.94-37.19,20.54-45.37,42.25c-2.23,5.92-7.02,10.17-14.11,9.66
		c-7.48-0.54-9.87-6.54-11.77-12.38c-1.69-5.2-3.85-10.76-3.5-16c0.77-11.6-5.83-14.61-15.23-15.72c-3.01-0.36-6.08-0.91-8.89-1.98
		c-7.69-2.91-14.85-7.06-15.5-16.2c-0.61-8.52,5.36-13.88,12.59-16.08c11.62-3.53,12.6-11.41,11.12-21.28
		c-0.81-5.41-1.9-10.93-1.61-16.34c0.5-9.39,8.41-15.96,16.19-11.41c18.12,10.59,31.76,8.81,44.12-8.52
		c3.46-4.85,10.41-6.48,16.7-3.03C386.76,37.78,385.65,45.55,385.78,51.92z M361.48,69.16c-12.04,17.39-24.98,4.29-37.14,1.77
		c-2.3,8.98,2.44,15.69,2.4,22.93c-0.05,8.63-8.75,9.53-14.52,13.66c22.57,9.12,22.57,9.12,28.49,25
		c6.6-18.05,23.47-20.84,39.12-29.2C364.62,96.49,359.19,85.5,361.48,69.16z"/>
	<path class="st1" d="M470.49,893.12c57.4,21.25,114.09,17.52,170.56,10.55c36.25-4.47,72.7-8.17,108.43-16.69
		c20.83-4.96,41.3-10.61,59.73-19.57c3.78,1.84,4.29,4.15,4.18,6.65c-1.44,35.71,13.76,65.08,34.96,92.21
		c3.35,4.29,7.18,8.07,9.55,13.28c5.73,12.56,10.54,13.8,19.32,3.29c13.15-15.73,30.34-24.18,48.74-31.17
		c23.39-8.89,47.44-11.04,71.91-5.9c42.18,8.86,66.22,56.27,48.5,95.77c-3.73,8.32-8.65,16.15-13.47,23.92
		c-8.72,14.05-7.33,27.69,10.94,32.84c2.34,0.66,4.71,1.42,6.88,2.49c19.82,9.81,22.99,24.72,8.64,41.18
		c-6.45,7.4-14.01,13.68-22.11,19.19c-21.11,14.37-48.5,15.7-68.7,38.32c-1.44-10.56,2.32-13.96,3.96-17.94
		c4.25-10.32,3.57-16.9-2.7-19.08c-8.56-2.99-12.27,3.02-15.16,9.42c-5.56,12.32-15.31,20.37-26.7,26.77
		c-28.77,16.18-54.52,10.06-73.12-17.5c-3.4-5.04-5.67-10.87-9.18-15.82c-6.52-9.2-14.19-9.16-20.43,0.07
		c-2.71,4-4.44,8.68-6.5,13.1c-9.45,20.33-22.93,37.54-40.66,51.2c-20.63,15.9-43.93,23.89-70.18,21.05
		c-22.28-2.42-41.43-10.28-51.53-32.33c-2.25-4.9-5.78-8.31-11.44-6.72c-6.42,1.8-7.92,7.07-7.15,13.07
		c0.3,2.39,0.72,5.06,2.02,6.96c4.17,6.12,0.6,8.66-4.37,11.02c-6.63,3.15-13.32,6.05-20.61,7.4c-17.72,3.3-35.39,2.27-52.83-1.45
		c-16.09-3.44-29.03-11.65-38.35-25.96c-9.15-14.03-15.45-14.42-27.54-2.47c-21.47,21.22-45.71,36.53-76.62,39.28
		c-20.13,1.79-39.02-1.74-56.14-12.6c-9.88-6.27-18.18-13.94-22.43-25.67c-4.42-12.19-5.91-12.29-19.02-7.66
		c-27.64,9.76-63.11,0.07-83.5-22.8c-20.09-22.53-25.08-57.25-12.14-84.03c4.08-8.44,9.67-15.58,17.65-20.61
		c12.28-7.74,24.33-5.91,36.37,0.88c4.57,2.57,9.37,2.79,13.4-1.41c4.26-4.44,2.32-8.67-0.12-13.31
		c-19.03-36.16-5.15-73.55,33.24-89.92c31.57-13.46,64.86-5.24,87.47,21.6c10.46,12.41,17.7,11.86,26.53-1.16
		c18.41-27.12,26.52-57.41,28.56-89.68C469.74,907.12,470.04,901.05,470.49,893.12z M504.01,1048.14
		c-43.16-1.94-87.8,25.61-104.73,63.48c-2.52,5.63-4.87,11.22-4.22,17.54c0.49,4.74,3.06,8.02,7.8,8.94
		c3.96,0.76,7.22-1.06,9.31-4.36c1.27-2,1.93-4.42,2.69-6.71c7.38-22.12,22.81-37.17,42.73-47.98
		c34.86-18.92,59.08-14.71,86.14,14.74c4.01,4.36,8.17,8.13,14.04,4.44c6.63-4.17,5.33-10.51,2.28-16.18
		c-3.5-6.51-9.07-11.37-14.57-16.27c-8.7-7.74-8.62-11.18-0.57-18.69c6.67-6.22,14.92-8.3,23.57-8.33
		c6.03-0.02,12.07,1.41,18.1,2.18c5.99,0.76,11.38-0.21,12.82-7.04c1.4-6.62-2.92-9.77-8.48-12.15
		c-21.03-8.98-51.31-2.4-64.75,16.47C519.49,1047.61,513.33,1051.91,504.01,1048.14z M771.31,1022.18
		c-25.68-0.15-43.9,5.4-58.34,15.72c-4.98,3.56-9.63,7.5-12.89,12.77c-3.52,5.68-4.91,11.6,1.31,16.18
		c5.62,4.14,10.51,1.34,14.11-3.48c5.29-7.09,12.35-11.59,20.21-15.13c27.24-12.26,60.69-5.54,82.34,16.59
		c6.42,6.56,11.56,14.05,16.21,21.97c3.12,5.3,8.12,7.71,13.94,4.31c5.03-2.94,5.01-8.05,3.49-12.96c-0.89-2.86-2.37-5.61-3.98-8.15
		C828.35,1039.46,800.71,1023.29,771.31,1022.18z"/>
	<path class="st2" d="M568.88,697.88c-34.77,0-74.45-8.74-111.98-26.76c-6.04-2.9-11.99-6.04-17.76-9.46
		c-6.26-3.71-9.06-9.16-8.84-16.79c3.23-109.32,18.93-216.6,52.1-321.05c2.77-8.72,7.12-17.02,9.21-25.87
		c3.78-15.97,14.67-23.92,28.55-30.73c48.63-23.84,99.18-37.91,153.87-33.71c30,2.31,59.38,6.81,86.95,20.07
		c7.27,3.5,11.35,7.8,13.8,15.46c22.19,69.35,41.16,139.46,50.41,211.86c5.03,39.4,8.91,78.96,14.44,118.28
		c2.08,14.82-2.45,24.08-14.87,31.8c-49.31,30.65-101.37,53.86-159.58,60.92C635.46,695.51,605.79,700.22,568.88,697.88z
		 M627.87,568.52c42.44,0.33,82.07-16.58,109.51-46.74c47.68-52.4,41.08-129.97-14.7-173.04c-61.85-47.76-158.57-33.59-204.04,29.89
		c-37.71,52.64-27.53,122.15,23.92,161.59C567.65,559.44,596.32,568.46,627.87,568.52z"/>
	<path class="st3" d="M864.62,737.35c1.8-26.29-0.89-52.48-1.82-78.69c-0.36-10.24,2.79-17.28,10.22-23.82
		c20.72-18.25,42.57-34.72,68.35-45.21c6.75-2.75,13.71-5.32,20.82-6.78c19.96-4.11,27.75,0.81,33.57,20.84
		c6.15,21.16,10.42,42.63,10.46,64.83c0.15,80.27-7.92,159.61-27.42,237.57c-4.19,16.76-1.57,16.57-19.94,17.29
		c-15.38,0.6-29.99,5.03-44.24,10.72c-13.3,5.3-13.42,5.24-17.32-9.3c-5.85-21.85-14.34-42.78-22.14-63.95
		c-2.3-6.24-4.93-13.01-9.35-17.69c-11.53-12.21-11.23-25.26-7.19-40.31C864.35,781.49,862.05,759.13,864.62,737.35z"/>
	<path class="st3" d="M408.81,727.42c1.3,29.25,0.5,58.7,8.93,87.25c1.43,4.84,1.13,9.45-3.48,13.2
		c-26.88,21.87-31.49,52.39-32.2,84.28c-0.27,12.22-0.08,24.45,0.06,36.67c0.07,6.18-2.35,8.79-8.83,7.98
		c-17.84-2.24-35.35-1.14-52.14,6.14c-8.71,3.78-10.48-3.16-12.52-8.82c-12.19-33.9-24.56-67.73-31.82-103.18
		c-7.73-37.76-13.04-75.84-15.8-114.26c-1.36-18.93-0.75-37.73,2.62-56.59c2.68-14.95,10.87-21.73,25.17-24.45
		c27.54-5.24,54.61-4.31,81.67,2.84c11.78,3.11,27.02,1.6,34.62,9.74c7.86,8.41,1.53,23.37,2.58,35.41
		C408.36,711.53,408.45,719.49,408.81,727.42z"/>
	<path class="st3" d="M515.11,245.63c21.6-50.66,49.22-96.35,88.85-133.85c7.93-7.5,16.85-14.3,26.24-19.85
		c26.64-15.74,37.38-13.01,59.9,3.98c10.82,8.16,19.08,18.84,26.37,30.25c19.23,30.1,31.73,63.19,43.12,96.78
		c0.54,1.6,1.07,3.52-1.62,5.94C675.78,202.39,594.64,206.64,515.11,245.63z"/>
	<path class="st3" d="M494.58,707.47c17.6,3.77,32.46,7.16,47.67,8.29c7.95,0.59,11.27,4.3,12.12,12.67
		c4.96,49.14,9.51,98.33,17.45,147.13c1.89,11.62,1.05,12.29-11.28,12.09c-10.37-0.17-20.75-1.41-31.1-1.11
		c-10.21,0.3-13.85-4.91-15.56-13.93c-6.28-32.97-10.39-66.24-14.98-99.46C495.96,751.97,495.42,730.85,494.58,707.47z"/>
	<path class="st3" d="M709.9,704.84c5.92,19.25,4.91,37.6,5.52,55.86c1.11,32.95-1.27,65.99,2.63,98.85
		c0.91,7.62-0.49,12.87-9.72,13.89c-12.11,1.33-24.15,3.51-36.15,5.67c-9.12,1.64-13.84-1.39-14.05-11.04
		c-0.18-8.54-1.06-17.07-1.3-25.62c-1.07-37.83-2.1-75.67-2.98-113.51c-0.36-15.38-0.18-15.41,13.82-17.6
		C681.5,709.18,695.33,707.08,709.9,704.84z"/>
	<path class="st3" d="M736.75,867.87c0-14.39,0.18-27.14-0.03-39.89c-0.68-40.25,0.28-80.57-5.18-120.62
		c-0.71-5.23,0.21-9.33,6.09-11.63c14.2-5.54,28.17-11.66,42.26-17.47c5.16-2.13,8.25-0.65,8.34,5.31
		c0.15,9.16,0.29,18.32,0.39,27.47c0.49,42.74,0.66,85.49,1.67,128.22c0.26,10.91-3.03,16.65-13.82,19.75
		C764.74,862.39,752.99,865.16,736.75,867.87z"/>
	<path class="st3" d="M573.62,717.27c17.21,0,32.4,0.08,47.58-0.03c11.64-0.08,12.45,0.19,12.84,11.97
		c0.69,21.35,1.31,42.71,1.14,64.07c-0.2,25.66,1.09,51.24,3.39,76.76c0.9,9.99-2.53,13.56-12.5,15
		c-31.54,4.55-31.85,5.04-36.52-26.44C582.74,812.77,578.09,766.69,573.62,717.27z"/>
	<path class="st3" d="M494.02,878.88c-28.8-9.81-46.68-26.04-54.19-55.44c-11.5-45.03-10.17-90.64-11.11-136.27
		c-0.03-1.58,1.03-3.18,1.92-5.72c12.61,5.37,24.79,10.61,37.01,15.74c5.52,2.32,5.9,6.84,6.11,11.99
		c1.45,35.96,5.49,71.68,10.42,107.3C487,836.84,490.56,857.1,494.02,878.88z"/>
	<path class="st3" d="M810.56,836.66c0-13.64,0.25-28.01-0.05-42.37c-0.82-39.6-1.6-79.2-3.08-118.77
		c-0.29-7.89,1.79-12.37,8.7-15.9c8.09-4.13,15.64-9.29,23.02-13.75c3.48,1.03,3.94,3.3,3.98,5.81c0.74,45.69,3.03,91.4-2.55,136.97
		c-2.1,17.15-4.85,34.01-19.85,45.47C818.45,835.88,816.34,838.49,810.56,836.66z"/>
	<path class="st1" d="M1114.12,163.07c-21.52,9.91-39.84,12.72-58.92,8.32c-45.16-10.41-66.87-53.61-48.52-96.21
		c14.61-33.89,48.92-55.35,90.66-54.63c-20.43,22.18-31.41,46.58-27.48,75.45C1073.68,123.97,1088.64,145.5,1114.12,163.07z"/>
	<path class="st1" d="M1026.71,467.44c-2.01-24.54-18.22-26.25-33.95-29.08c3.54-5.37,7.39-4.14,10.39-5.06
		c12.01-3.67,13.39-6.43,9.18-18.47c-2.57-7.36-6.74-14.2-7.71-24.02c15.06,3.56,28.17,21.9,44.71,5.56
		c5.63,15.37-13.83,31.29,2.5,47.51C1037.89,443.36,1032.74,452.94,1026.71,467.44z"/>
	<path class="st1" d="M280.15,474.49c-14.88,8.62-29.78,14.53-29.35,34.83c-11.84-17.06-11.71-16.74-29.41-18.16
		c13.83-13.82-3.09-24.86-2.43-39.79c14.21,7.91,27.6,16.91,42.6,1.08C264.59,463.17,268.7,471.05,280.15,474.49z"/>
	<path class="st1" d="M361.48,69.16c-2.29,16.34,3.14,27.33,18.35,34.16c-15.65,8.35-32.52,11.15-39.12,29.2
		c-5.92-15.88-5.92-15.88-28.49-25c5.76-4.13,14.47-5.02,14.52-13.66c0.04-7.24-4.7-13.94-2.4-22.93
		C336.5,73.45,349.44,86.55,361.48,69.16z"/>
	<path class="st0" d="M504.01,1048.14c9.32,3.77,15.49-0.53,22.18-9.92c13.44-18.87,43.72-25.45,64.75-16.47
		c5.56,2.37,9.88,5.53,8.48,12.15c-1.45,6.83-6.84,7.8-12.82,7.04c-6.04-0.77-12.07-2.2-18.1-2.18c-8.65,0.03-16.9,2.12-23.57,8.33
		c-8.05,7.5-8.13,10.94,0.57,18.69c5.5,4.9,11.07,9.76,14.57,16.27c3.05,5.66,4.35,12.01-2.28,16.18
		c-5.87,3.69-10.03-0.08-14.04-4.44c-27.06-29.45-51.28-33.66-86.14-14.74c-19.92,10.81-35.35,25.87-42.73,47.98
		c-0.76,2.29-1.42,4.71-2.69,6.71c-2.09,3.3-5.35,5.12-9.31,4.36c-4.75-0.91-7.32-4.2-7.8-8.94c-0.65-6.31,1.71-11.91,4.22-17.54
		C416.21,1073.75,460.84,1046.2,504.01,1048.14z"/>
	<path class="st0" d="M771.31,1022.18c29.4,1.11,57.05,17.28,76.41,47.8c1.61,2.55,3.1,5.3,3.98,8.15
		c1.53,4.91,1.54,10.03-3.49,12.96c-5.83,3.4-10.83,0.98-13.94-4.31c-4.66-7.91-9.79-15.41-16.21-21.97
		c-21.66-22.12-55.1-28.85-82.34-16.59c-7.86,3.54-14.93,8.04-20.21,15.13c-3.6,4.82-8.49,7.62-14.11,3.48
		c-6.22-4.58-4.83-10.5-1.31-16.18c3.27-5.27,7.91-9.21,12.89-12.77C727.41,1027.59,745.62,1022.03,771.31,1022.18z"/>
	<path class="st0" d="M627.87,568.51c-31.55-0.05-60.22-9.07-85.31-28.31c-51.45-39.44-61.64-108.95-23.92-161.59
		c45.47-63.47,142.19-77.64,204.04-29.89c55.79,43.07,62.38,120.65,14.7,173.04C709.94,551.94,670.31,568.85,627.87,568.51z
		 M628.03,340.07c-24.9,0.36-54.11,11.07-78.5,33.54c-51.51,47.45-42.12,125.27,18.99,159.28c50.38,28.04,115.55,17.32,154.13-25.38
		c40.87-45.22,33.78-110.44-15.97-145.54C685.61,347.11,662.04,339.87,628.03,340.07z"/>
	<path class="st3" d="M628.03,340.07c34.01-0.2,57.58,7.05,78.64,21.91c49.75,35.1,56.84,100.32,15.97,145.54
		c-38.58,42.69-103.75,53.42-154.13,25.38c-61.11-34.02-70.49-111.83-18.99-159.28C573.92,351.13,603.13,340.43,628.03,340.07z
		 M630.86,527.5c26.64-0.71,50.56-8.41,70.62-26.26c35.45-31.53,36.13-82.17,1.67-114.75c-38.58-36.47-107.85-34.93-144.72,3.22
		c-32.14,33.25-30.57,81.23,3.77,112.27C581.7,519.61,605.08,526.92,630.86,527.5z"/>
	<path class="st0" d="M630.86,527.5c-25.78-0.57-49.16-7.89-68.67-25.52c-34.34-31.04-35.91-79.02-3.77-112.27
		c36.87-38.15,106.15-39.69,144.72-3.22c34.46,32.58,33.78,83.22-1.67,114.75C681.42,519.08,657.5,526.78,630.86,527.5z
		 M635.16,380.31c-26.01,0.07-47.84,7.95-64.78,26.75c-19.96,22.15-19.8,52.79-0.2,74.83c31.36,35.26,95.78,33.63,125.22-3.17
		c18.19-22.74,17.41-52.02-2.33-73.41C677.26,388.19,657.04,381.04,635.16,380.31z"/>
	<path class="st1" d="M635.16,380.31c21.87,0.73,42.1,7.88,57.91,25c19.75,21.39,20.52,50.67,2.33,73.41
		c-29.44,36.8-93.86,38.43-125.22,3.17c-19.6-22.04-19.76-52.67,0.2-74.83C587.32,388.26,609.15,380.38,635.16,380.31z"/>
</g>
</svg>
