<?xml version="1.0" encoding="utf-8"?>
<!-- Generator: Adobe Illustrator 24.0.2, SVG Export Plug-In . SVG Version: 6.00 Build 0)  -->
<svg version="1.1" id="Capa_1" xmlns="http://www.w3.org/2000/svg" xmlns:xlink="http://www.w3.org/1999/xlink" x="0px" y="0px"
	 viewBox="0 0 1280 1280" style="enable-background:new 0 0 1280 1280;" xml:space="preserve">
<style type="text/css">
	.st0{fill:#030910;}
	.st1{fill:#3D6EF1;}
	.st2{fill:#F5F5AB;}
</style>
<g>
	<g>
		<path class="st0" d="M616.91,850.04c-3.1-10.04-12.71-10.94-20.1-14.3c-21.33-9.71-42.89-18.91-64.38-28.28
			c-10.1-4.41-19.36-9.79-15.75-23.07c3.32-12.2,12.93-15.48,24.4-14.52c22.53,1.87,45.12,3.36,67.55,6.09
			c20.87,2.55,40.92-1.39,61.83-2.98c0.12-10.31-7.1-11.19-11.78-13.28c-25.55-11.39-53.08-16.07-79.91-23.21
			c-10.68-2.84-26.36-0.36-29.08-16.89c-1.58-9.61,9.71-16.83,32.59-19.37c34.55-3.84,69.24-6.51,103.88-9.53
			c13.9-1.21,27.2-4.01,40.74-11.96c-9.22-13.88-22.12-14.28-34.71-14.77c-41.76-1.6-83.48,0.23-125.19,2.08
			c-7.77,0.35-15.63,0.59-23.35-0.12c-7.45-0.69-13.32-4.88-14.72-12.63c-1.45-8,3.31-13.26,10.11-16.33
			c22.93-10.38,45.92-20.62,68.99-30.67c15.91-6.93,32.09-13.25,47.96-20.26c6.39-2.82,13.53-6.85,11.43-15.2
			c-1.96-7.82-10.13-9.12-16.93-9.67c-16.74-1.35-32.72,3.05-48.51,8.06c-47.28,15-92.38,35.39-137.57,55.55
			c-4.76,2.12-9.25,5.07-14.19,6.52c-16.23,4.79-29.74-4.5-31.46-21.37c-1.2-11.8,3.01-22.2,8.93-32.07
			c8.49-14.14,17.44-28.03,25.24-42.55c3.06-5.7,6.88-12.85,0.67-19.33c-6.35-6.62-14.21-5.76-21.87-3.15
			c-10.23,3.48-17.52,11.18-24.47,18.94c-13.96,15.58-25.81,32.76-37.02,50.4c-15.49,24.38-34.47,45.9-55.4,65.64
			c-14.59,13.76-16.95,12.47-31.37-1.36c-29.48-28.27-59.53-55.97-89.88-83.32c-38.76-34.93-78.04-69.28-117.08-103.9
			c-2.6-2.31-5.45-4.46-7.57-7.16c-9.68-12.3-21.11-24.44-12.74-41.96c8.15-17.07,24.21-22,41.08-22.63
			c16.44-0.61,32.96,1.71,49.46,2.22c79.08,2.43,158.29-3.21,237.27,3.39c15.68,1.31,22.26-4.66,28.5-18.64
			c45.36-101.54,86.57-204.74,125.63-308.83c3.32-8.85,6.55-17.63,12.77-25.41c29.05-36.32,69.77-31.37,87.57,11.8
			c12.57,30.49,24.15,61.44,34.96,92.61c24.48,70.58,50.73,140.48,77.15,210.34c7.25,19.17,18.05,25.73,38.22,27.33
			c95.33,7.54,190.53,16.81,285.74,25.74c22.23,2.09,34.75,28.29,24.91,51.92c-6.5,15.6-17.75,27.66-31.07,37.9
			c-84.09,64.63-167.89,129.62-252.43,193.65c-15.24,11.54-21.3,21.75-17.87,42.43c10.69,64.27,14.95,129.52,26.62,193.71
			c7.45,41.04,15.73,81.92,23.63,122.88c3.47,18.02,4.3,36.26,4.05,54.54c-0.13,9.56-1.39,18.95-5.47,27.94
			c-14.38,31.7-42.44,40.03-68.8,17.86c-23.91-20.11-45.85-42.6-68.14-64.58c-47.08-46.42-92.88-94.07-136.21-144.05
			c-5.63-6.5-11.8-12.53-18.83-19.95c-40.92,33.39-81.16,66.31-121.5,99.11c-48.56,39.5-97.54,78.49-145.59,118.6
			c-13.21,11.03-25.45,9.29-38.47,2.85c-14.58-7.21-26.59-17.33-26.52-35.46c0.03-8.63,0.93-17.51,3.08-25.85
			c21.06-81.58,37.86-164.24,62.21-244.98c1.5-4.99,3.04-10.02,5.16-14.76c8.85-19.78,16.12-22.73,36.22-15.1
			c38.54,14.63,79.12,19.68,119.56,25.24c49.07,6.75,98.19,13.19,147.32,19.51C602.98,852.24,609.89,853.94,616.91,850.04z
			 M461.34,592.9c12.24-2.02,22.73-8.49,33.76-13.49c37.23-16.87,75.31-31.42,114.65-42.57c17.03-4.83,34.43-5.36,51.72-2.99
			c19.02,2.61,34.43,16.24,36.67,32.38c2.41,17.35-5.99,30.59-19.93,39.6c-10.13,6.54-21.66,10.91-32.56,16.26
			c-5.5,2.7-12.81,2.94-16.07,11.03c28.29,1.9,55.34-1.87,82.02,3.98c14.01,3.07,26.65,8.05,36.51,18.56
			c12.07,12.87,12.26,25.98,1.32,39.75c-10.5,13.21-25.61,17.37-40.97,20.75c-17.09,3.77-34.61,5.21-52.22,7.59
			c10.65,7.65,21.66,12.51,31.74,18.83c11.7,7.34,19.32,18.06,17.08,32.67c-2.29,14.91-13.21,22.08-26.89,24.67
			c-12.76,2.42-25.77,3.73-38.72,4.98c-9.54,0.93-19.17,0.98-32.2,1.59c13.41,8.31,23.47,13.56,32.37,20.33
			c9.45,7.18,14.86,17.24,12.54,29.65c-2.38,12.73-11.75,18.96-23.37,21.68c-7.53,1.77-15.56,3.39-23.13,2.65
			c-30.26-2.97-60.53-6.15-90.6-10.61c-61.78-9.17-124.36-14.09-184.43-32.88c-8.63-2.7-13.1,1.12-15.42,8.97
			c-1.73,5.83-3.75,11.59-5.22,17.48c-18.16,72.46-36.25,144.94-54.31,217.43c-1.26,5.05-2.66,10.18-2.91,15.32
			c-0.35,7.01,0.49,14.21,7.03,18.61c7.88,5.3,12.9-1.19,18.16-5.3c86.28-67.44,170.42-137.5,254.25-207.94
			c20.66-17.36,25.87-18.1,45.43,2.1c15.72,16.23,30.48,33.38,45.57,50.21c52.87,58.96,109.51,114.21,166.63,168.95
			c16.86,16.16,28.84,11.87,33.14-11.43c1.7-9.25,1.37-19.12,0.42-28.55c-1.55-15.54-3.72-31.09-6.74-46.41
			c-14.11-71.6-28.57-143.13-36.52-215.78c-3.78-34.53-5.03-69.57-14.5-103.11c-4.37-15.48-0.39-24.7,11.6-33.3
			c92.58-66.37,179.54-140.07,270.84-208.13c6.21-4.63,12.34-9.83,17.08-15.88c12.96-16.57,9.74-24.12-11.04-26.07
			c-93.42-8.75-186.83-17.72-280.34-25.53c-20.54-1.72-34.85-9.4-42.66-28.27c-8.97-21.67-18.06-43.31-26.16-65.31
			c-28.19-76.63-55.87-153.46-84.04-230.1c-3.88-10.55-8.47-21.09-14.44-30.55c-8.03-12.73-16.92-13.07-27.69-2.77
			c-10.5,10.04-14.51,23.71-19.14,36.66c-37.8,105.61-82.52,208.38-127.29,311.13c-9.23,21.19-12.81,23.61-35.3,22.54
			c-15.62-0.74-31.22-2.47-46.84-2.63c-82.59-0.85-165.19-1.39-247.78-1.88c-5.68-0.03-12.13-1.79-16.51,3.74
			c-1.45,6.63,3.22,9.89,6.88,13.22c64.96,59.07,132.55,115.21,195.76,176.21c9.29,8.97,15.71,7.6,23.55-1.38
			c12.59-14.44,24.51-29.3,35.25-45.2c10.69-15.83,21.8-31.43,33.52-46.51c9.64-12.41,21.12-23.21,35.37-30.36
			c21.2-10.62,42.8-7.74,57.87,7.28c14.07,14.01,15.89,29.62,4.72,52.73c-6.77,14.01-15.01,27.31-22.56,40.94
			c-1.33,1.83-3.38,3.94-1.05,5.93C457.35,596.19,459.62,594.77,461.34,592.9z"/>
		<path class="st0" d="M281.92,220.8c-11.13-1.66-13.92-9.38-15.18-18.54c-4.46-32.46-20.19-58.44-45.53-78.89
			c-3.35-2.7-6.8-5.54-9.3-8.98c-6.95-9.56-5.52-19.3,5.67-23.06c30.77-10.35,39.88-36.07,47.86-63.06
			c1.46-4.95,1.57-10.3,2.97-15.27c2.71-9.63,8.8-14.26,19.33-12.7c9.58,1.43,16.41,5.24,17.48,15.79
			c0.79,7.75,1.2,15.57,2.48,23.24c3.93,23.65,10.69,45.63,34.54,57.55c3.66,1.83,6.8,5.4,9.22,8.85c5.44,7.76,4.4,16.98-4.05,19.67
			c-21.26,6.77-27.13,25.27-35.64,41.94c-6.3,12.35-10.91,25.41-14.35,38.88C295.35,214.36,290.83,220.27,281.92,220.8z
			 M311.01,112.41c-11.08-12.75-20.17-26.62-26.88-45.43c-11.72,17.17-21.05,31.08-34.69,42.26c14.84,14.71,24.24,30.07,35.32,47.14
			C292.17,139.57,301.45,126.4,311.01,112.41z"/>
		<path class="st0" d="M161.2,989.46c-1.16,7.61-5.31,11.71-10.24,15.64c-25.49,20.32-47.12,43.6-57.44,75.55
			c-2.26,6.99-6.74,12.26-15.15,11.71c-8.44-0.55-12.5-6.6-13.62-13.62c-5.31-33.35-28.69-54.41-50.82-76.41
			c-1.84-1.83-4.21-3.14-5.97-5.03c-12.61-13.52-10.29-24.3,7.18-31.13c8.13-3.18,16.07-6.47,23.19-11.56
			c15.56-11.13,25.07-26.44,29.03-44.85c1.98-9.19,4.26-17.7,15.01-18.08c11.09-0.39,15.02,8.59,15.6,17.48
			c2,30.73,19.83,48.87,46.27,60.53C153.64,973.83,160.27,979.71,161.2,989.46z M80.62,953.45c-11.23,14.32-25.77,23.33-38.03,34.87
			c13.58,16.55,25.94,31.63,38.8,47.3c13.34-15.13,25.74-29.19,39.45-44.73C104.28,981.44,91.97,968.78,80.62,953.45z"/>
		<path class="st0" d="M979.93,699.89c8.57-0.2,12.86,2.56,15.34,7.54c2.31,4.62,3.98,9.57,5.8,14.42
			c8.51,22.71,21.64,40.8,45.01,50.9c14.25,6.15,16.46,14.23,7.29,23.66c-19.73,20.29-31.19,45.42-43.81,69.98
			c-1.58,3.07-2.58,6.52-4.57,9.28c-8.86,12.32-21.76,11.3-28.29-2.26c-1.86-3.86-2.37-8.35-4.08-12.3
			c-9.59-22.2-21.86-41.54-48.99-44.47c-7.04-0.76-10.98-4.96-11.71-11.76c-0.89-8.24,0.51-16.5,9.26-19.42
			c31.62-10.56,42.04-35.61,46.24-65.35c0.6-4.23,1.59-8.48,3-12.5C972.4,702.01,977.09,700.01,979.93,699.89z M987.69,762.75
			c-8.77,11.46-17.58,22.97-26.69,34.88c10.47,11.18,20.92,22.35,32.95,35.19c8.11-14.02,20-26.13,21.24-39.24
			c1.09-11.5-17.07-17.53-24.27-28.2C990.45,764.69,989.59,764.27,987.69,762.75z"/>
		<path class="st0" d="M1234.96,687.95c-1.39,7.95-3.19,14.52-9.09,19.23c-21.09,16.85-41.6,34.13-51.9,60.4
			c-2.42,6.19-8.37,8.57-15.1,7.5c-6.95-1.11-10.35-5.76-11.38-12.4c-0.53-3.42-0.85-6.88-1.33-10.32
			c-2.72-19.25-11.74-33.14-29.82-42.62c-21.14-11.09-21.13-20.11-1.44-32.82c17.78-11.48,29.8-26.14,32.35-47.65
			c0.41-3.43,0.83-6.97,2.06-10.15c2.7-7,7.82-11.49,15.59-11.75c6.7-0.23,11.95,3.27,14.63,9.07c3.98,8.63,6.84,17.77,10.43,26.58
			c6.3,15.47,12.44,30.83,33.4,31.15C1231.95,674.32,1234.01,681.67,1234.96,687.95z M1191.65,697.01
			c-9.07-10.99-16.74-20.27-24.98-30.26c-7.44,8.82-14.48,17.17-21.18,25.11c7.91,9.67,14.94,18.25,22.16,27.06
			C1177.08,713.9,1183.36,705.55,1191.65,697.01z"/>
		<path class="st0" d="M416.57,1208.79c-1.72,3.55-2.73,8.22-5.57,11.05c-14.31,14.26-24.83,31.08-34.71,48.47
			c-4.01,7.06-9.36,13.06-18.52,11.43c-7.82-1.39-11.16-7.68-12.82-14.76c-4.3-18.4-13.09-33.54-29.36-44.19
			c-7.65-5.01-8.82-12.45-3.1-20.25c4.06-5.54,7.04-11.76,13.17-15.82c15.27-10.14,23.33-25.19,27.49-42.63
			c0.4-1.69,0.81-3.37,1.17-5.07c1.61-7.64,6.12-12.94,13.99-13.01c7.89-0.07,13.11,4.98,13.86,12.85
			c1.92,20.13,12.02,35.87,25.67,49.81C413.77,1192.7,414.04,1200.7,416.57,1208.79z M364.29,1230.93
			c7.51-9.45,13.84-17.41,20.07-25.24c-5.2-8.13-9.55-15.26-16.92-19.71C345.7,1206.85,345.7,1206.85,364.29,1230.93z"/>
		<path class="st1" d="M456.26,588.45c7.58-13.62,15.82-26.92,22.59-40.93c11.17-23.11,9.35-38.71-4.72-52.73
			c-15.07-15.01-36.67-17.9-57.87-7.28c-14.25,7.14-25.73,17.95-35.37,30.36c-11.72,15.08-22.83,30.68-33.52,46.51
			c-10.74,15.9-22.66,30.76-35.25,45.2c-7.83,8.98-14.25,10.35-23.55,1.38c-63.2-61-130.8-117.14-195.76-176.21
			c-3.66-3.33-8.33-6.6-6.88-13.22c4.38-5.53,10.83-3.77,16.51-3.74c82.59,0.49,165.19,1.02,247.78,1.88
			c15.62,0.16,31.22,1.89,46.84,2.63c22.49,1.07,26.06-1.35,35.3-22.54c44.77-102.75,89.49-205.51,127.29-311.13
			c4.63-12.94,8.64-26.62,19.14-36.66c10.78-10.31,19.67-9.96,27.69,2.77c5.97,9.47,10.57,20,14.44,30.55
			c28.17,76.64,55.85,153.47,84.04,230.1c8.09,22,17.19,43.64,26.16,65.31c7.81,18.87,22.12,26.55,42.66,28.27
			c93.5,7.82,186.91,16.78,280.34,25.53c20.78,1.95,24,9.5,11.04,26.07c-4.74,6.05-10.87,11.25-17.08,15.88
			c-91.3,68.05-178.25,141.76-270.84,208.13c-11.99,8.6-15.97,17.82-11.6,33.3c9.47,33.54,10.72,68.58,14.5,103.11
			c7.95,72.65,22.41,144.17,36.52,215.78c3.02,15.32,5.19,30.87,6.74,46.41c0.94,9.43,1.28,19.3-0.42,28.55
			c-4.3,23.3-16.28,27.59-33.14,11.43c-57.12-54.75-113.77-109.99-166.63-168.95c-15.09-16.83-29.86-33.99-45.57-50.21
			c-19.56-20.19-24.77-19.46-45.43-2.1c-83.83,70.44-167.97,140.5-254.25,207.94c-5.26,4.11-10.28,10.6-18.16,5.3
			c-6.54-4.4-7.38-11.6-7.03-18.61c0.26-5.15,1.66-10.28,2.91-15.32c18.05-72.49,36.15-144.96,54.31-217.43
			c1.48-5.89,3.49-11.65,5.22-17.48c2.33-7.85,6.79-11.67,15.42-8.97c60.07,18.79,122.65,23.71,184.43,32.88
			c30.07,4.46,60.34,7.64,90.6,10.61c7.57,0.74,15.6-0.88,23.13-2.65c11.62-2.73,20.99-8.95,23.37-21.68
			c2.32-12.41-3.09-22.47-12.54-29.65c-8.91-6.77-18.97-12.02-32.37-20.33c13.02-0.6,22.65-0.66,32.2-1.59
			c12.95-1.26,25.95-2.57,38.72-4.98c13.68-2.59,24.6-9.77,26.89-24.67c2.24-14.6-5.38-25.33-17.08-32.67
			c-10.08-6.33-21.08-11.19-31.74-18.83c17.61-2.38,35.13-3.83,52.22-7.59c15.36-3.38,30.47-7.54,40.97-20.75
			c10.94-13.77,10.76-26.88-1.32-39.75c-9.86-10.51-22.51-15.49-36.51-18.56c-26.68-5.85-53.73-2.08-82.02-3.98
			c3.25-8.1,10.57-8.34,16.07-11.03c10.9-5.35,22.43-9.72,32.56-16.26c13.94-9,22.34-22.25,19.93-39.6
			c-2.24-16.13-17.65-29.76-36.67-32.38c-17.3-2.38-34.69-1.84-51.72,2.99c-39.35,11.15-77.42,25.7-114.65,42.57
			c-11.04,5-21.52,11.48-33.76,13.49C459.65,591.42,457.95,589.94,456.26,588.45z"/>
		<path class="st1" d="M461.34,592.9c-1.72,1.87-3.99,3.29-6.1,1.48c-2.33-1.99-0.28-4.1,1.03-5.93
			C457.95,589.94,459.65,591.42,461.34,592.9z"/>
		<path class="st2" d="M311.01,112.41c-9.56,13.99-18.84,27.16-26.26,43.97c-11.08-17.07-20.48-32.43-35.32-47.14
			c13.65-11.18,22.97-25.09,34.69-42.26C290.83,85.79,299.93,99.66,311.01,112.41z"/>
		<path class="st2" d="M80.62,953.45c11.35,15.32,23.66,27.99,40.22,37.44c-13.71,15.54-26.11,29.6-39.45,44.73
			c-12.85-15.67-25.22-30.75-38.8-47.3C54.85,976.78,69.39,967.77,80.62,953.45z"/>
		<path class="st2" d="M987.69,762.75c1.9,1.52,2.77,1.94,3.23,2.62c7.2,10.67,25.35,16.7,24.27,28.2
			c-1.24,13.11-13.12,25.22-21.24,39.24c-12.02-12.84-22.48-24-32.95-35.19C970.11,785.72,978.92,774.21,987.69,762.75z"/>
		<path class="st2" d="M1191.65,697.01c-8.29,8.53-14.58,16.88-24.01,21.91c-7.22-8.82-14.24-17.4-22.16-27.06
			c6.7-7.94,13.74-16.29,21.18-25.11C1174.92,676.74,1182.58,686.02,1191.65,697.01z"/>
		<path class="st2" d="M364.29,1230.93c-18.59-24.08-18.59-24.08,3.14-44.95c7.37,4.45,11.72,11.58,16.92,19.71
			C378.13,1213.52,371.8,1221.48,364.29,1230.93z"/>
	</g>
</g>
</svg>
