<?xml version="1.0" encoding="utf-8"?>
<!-- Generator: Adobe Illustrator 24.0.2, SVG Export Plug-In . SVG Version: 6.00 Build 0)  -->
<svg version="1.1" id="Capa_1" xmlns="http://www.w3.org/2000/svg" xmlns:xlink="http://www.w3.org/1999/xlink" x="0px" y="0px"
	 viewBox="0 0 1280 1280" style="enable-background:new 0 0 1280 1280;" xml:space="preserve">
<style type="text/css">
	.st0{fill:#FFFFFF;}
	.st1{fill:#030910;}
	.st2{fill:#EFE0D4;}
	.st3{fill:#3D6EF1;}
	.st4{fill:#F5F5AB;}
	.st5{fill:#010509;}
	.st6{display:none;}
</style>
<g>
	<g>
		<ellipse class="st0" cx="313.97" cy="844.51" rx="220.96" ry="197.29"/>
		<ellipse class="st0" cx="992.64" cy="844.51" rx="220.96" ry="197.29"/>
		<path class="st1" d="M725.12,625.18c6.41-37.22,12.02-74.56,18.67-111.74c3.86-21.57,15.29-37.1,30.33-50.58
			c9.31-8.35,13.03-16.23,11.74-29.07c-2.88-28.57,5.34-38.08,34.14-44.12c24.06-5.05,48.15-10.59,72.88-10.06
			c22.13,0.47,41.42,6.76,47.8,31.49c1.13,4.39,3.72,6.23,7.32,7.65c5.27,2.09,10.67,3.89,15.81,6.25
			c18.35,8.42,36.34,17.08,48.49,34.6c5.32,7.67,12.72,13.98,19.58,20.49c56.43,53.51,106.76,112.44,154.59,173.61
			c1.55,1.98,3.38,3.74,5.12,5.57c89.2,93.28,96.67,235.64,13.71,342.57c-85.84,110.63-244.41,145.33-365.98,78.3
			c-88.37-48.73-134.69-124.92-136.34-226.23c-0.29-17.46-7.74-28.16-18.36-39.07c-10.29-10.57-23.04-15.7-37.48-14.86
			c-17.94,1.04-34.88,4.72-45.36,22.2c-3.44,5.73-4.86,11.13-4.97,17.61c-2.1,133.45-104.08,247.89-241.48,270.07
			c-89.21,14.4-169.56-6.95-236.66-68.29C18.56,950.05,7.94,800.14,92.87,690.31c16.24-21,30.84-43,44.66-65.44
			c22.16-35.99,46.26-70.66,69.48-105.93c12.82-19.48,25.92-39.81,45.92-52.2c16.74-10.37,28.94-20.8,31.07-41.88
			c1.19-11.72,12.58-17.27,23.77-18.45c29.53-3.12,59.16-3.55,88.71,0.3c3.7,0.48,7.29,2,10.87,3.23
			c14.41,4.92,24.05,13.77,23.87,30.16c-0.11,9.61,3.15,15.9,12.68,20.32c23.07,10.69,38.41,28,48.2,52.44
			c19.24,48,37.13,96.37,51.8,145.94c1.91,6.47,3.98,12.89,6.37,20.59c8.63-5.06,16.04-9.48,23.53-13.76
			c3.9-2.23,4.57-5.56,4.09-9.63c-0.65-5.64-1.35-11.29-1.58-16.95c-0.56-14.3,4.17-22.13,18.27-24.17
			c34.37-4.98,69.01-7.18,103.7-3.17c8.92,1.03,17.4,3.79,21.42,13.24c1.24,11.49-3.85,23.21,1.32,37.79
			C724.45,648.34,726.16,636.93,725.12,625.18z M165.82,619.26c-0.48,1.05-0.96,2.11-1.44,3.17c3.05,0.9,5.14-0.69,7.03-2.75
			c121.07-67.02,236.21-57.32,347.88,30.4c-16.16-53.39-33.42-101.86-56.02-148.34c-3.2-6.58-9.14-10.23-14.72-14.32
			c-40.06-29.38-84.52-31.82-131.69-23.54c-35.67,6.26-63.26,22.79-83.05,53.13C211.46,551.29,188.52,585.19,165.82,619.26z
			 M1004.64,1092.22c53.36-0.85,123.8-32.43,178.37-96.74c102.87-121.24,72.04-312.5-94.49-380.3
			C987.46,574.03,863,603.33,790.39,685.07c-59.83,67.35-82.37,145.37-57.76,233.38C761.93,1023.27,860.06,1093,1004.64,1092.22z
			 M337.05,1092.27c55-0.84,125.98-32.73,180.59-97.97c104.19-124.49,67.98-318.7-100.69-380.32
			c-105.26-38.45-202.61-16.06-283.07,61.74c-68.62,66.34-93.2,149.01-67.62,242.38C95,1023.06,193.38,1092.86,337.05,1092.27z
			 M1115.34,600.46c-2.71-3.43-5.42-6.86-8.12-10.3c-36.36-46.32-81.99-83.89-120.78-127.94c-3.63-4.12-9.02-6.85-13.91-9.67
			c-53.75-31.09-106.53-23.43-158.15,5.15c-30.36,16.81-48.62,42.53-54.29,77.5c-9.69,59.78-16.72,119.86-22.85,180.07
			c-0.19,1.87,0.44,2.49,3.27,1.31c38.69-61.78,93.53-104.83,164.43-126.9C975.94,567.57,1045.41,572.9,1115.34,600.46z
			 M712.3,739.61c2.08-15.19,3.58-28.73,5.88-42.14c1.62-9.43-2.57-13.54-10.9-16.6c-27.13-9.95-55.1-13.75-83.47-9.42
			c-20.47,3.13-40.53,9.22-57,23.07c-3.76,3.16-8.06,6.28-4.87,12.56c7.02,13.79,13.78,27.71,20.74,41.76
			C623.94,717.53,666.6,716.42,712.3,739.61z M595.1,794.91c38.62-21.68,75.84-24.37,109.65,9.67c10.63-25.3,6.76-41.99-13.71-51.45
			c-28.59-13.21-57.44-11.97-84.56,4.55C591.33,766.9,589.26,775.77,595.1,794.91z M698.52,641.47c2.02-8.7-4.63-9.81-11.06-10.56
			c-27.63-3.25-55.03,1.75-82.55,2.7c-9.52,0.33-7.75,7.85-7.28,14.06c0.56,7.32,4.73,7.42,10.5,5.72c26-7.66,52.09-4.97,78.18-0.33
			C698.01,655.14,698.76,654.36,698.52,641.47z M919.92,412.33c-11.6-12.32-22.69-12.66-33.65-12.13c-22,1.06-43.6,5.3-65.06,9.95
			c-14.69,3.18-16.38,6.86-13.32,26.01C841.97,418.74,878.01,410.52,919.92,412.33z M411.1,443.49
			c-2.74-13.44-11.34-14.87-19.1-16.27c-25.6-4.59-51.44-3.08-77.14-1.14c-11.19,0.84-12.01,3.43-11.77,19.11
			C338.36,437.68,373.75,436.7,411.1,443.49z"/>
		<path class="st1" d="M313.03,300.49c-0.44,5.66-3.35,8.66-7.02,11.46c-13.81,10.55-24.22,23.6-29.37,40.52
			c-1.92,6.31-5.5,11.84-12.64,12.45c-6.4,0.55-9.85-4.4-13.06-9.29c-10.61-16.17-19.19-33.79-37.19-44.13
			c-6.97-4.01-6.76-11.23-0.49-17.56c16.27-16.44,28.4-35.07,30.27-59c0.43-5.57,3.7-9.55,9.34-10.32c5.84-0.8,9.39,2.89,11.46,7.9
			c2.16,5.21,3.72,10.68,6.01,15.83c7.55,16.97,17.94,31.79,34.11,41.61C309.09,292.79,312.46,295.81,313.03,300.49z M284.64,302.2
			c-11.48-10.28-19.57-21.15-28.17-31.92c-5.63,8.68-10.65,16.56-15.85,24.34c-2.07,3.09-5.06,6.05-1.14,9.57
			c8.58,7.71,13.85,18.41,22.65,28.27C268.48,320.13,275.88,311.76,284.64,302.2z"/>
		<path class="st1" d="M1283.22,532.86c-0.39,5.36-3.55,9.14-7.15,12.7c-17.79,17.58-33.28,37-47.75,57.41
			c-13.03,18.38-25.98,17.6-34.97-2.37c-6.16-13.68-13.17-23.35-28.97-27.57c-14.52-3.89-16.66-27.94-3.03-41.27
			c14.54-14.22,25.93-29.82,34.65-48.11c7.43-15.57,18.96-15.57,27-0.61c4.71,8.76,7.89,18.32,15.88,24.96
			c8.71,7.24,15.71,16.79,30.11,12.19C1277.48,517.48,1282.89,523.62,1283.22,532.86z M1213.7,575.24
			c7.13-8.72,11.92-15.55,17.7-21.42c7.17-7.28,5.01-11.64-1.93-17.94c-18.77-17.05-18.48-17.5-35.6,2.16
			c-3.02,3.46-8.08,5.53-8.46,12.08C1196.73,555.04,1204.7,564.58,1213.7,575.24z"/>
		<path class="st1" d="M127.67,513.2c-14.76,16.35-20.52,41.17-33.44,62.17c-5.03,8.18-18.09,7.21-23.16-2.42
			c-11.98-22.72-31.66-35.36-52.89-47.3c-10.22-5.74-11.69-14.2-3.5-22.46c15.9-16.04,30.34-32.57,39.92-53.49
			c3.99-8.71,16.38-8.63,23.24,0c13.94,17.54,26.5,36.15,45.86,48.6C127.28,500.62,128.16,505.11,127.67,513.2z M80.78,535.6
			c15.65-25.88,15.65-25.88-13.96-49.26c-5.97,7.54-11.93,15.07-18.36,23.19C59.55,518.47,69.62,526.59,80.78,535.6z"/>
		<path class="st1" d="M1181.76,414.36c-5.98-0.35-10.6-2.58-12.67-7.6c-5.14-12.43-13.16-22.62-22.3-32.34
			c-7.45-7.92-6.41-16.5,3.71-21.58c13.48-6.77,20.74-17.05,25.57-30.76c3.58-10.15,12.02-11.41,18.67-3.13
			c9.76,12.15,16,26.93,28.11,37.47c3.04,2.64,2.7,7.33-0.03,10.39c-12.53,14.07-24.28,28.71-34.94,44.25
			C1186.64,412.87,1183.57,413.43,1181.76,414.36z M1188.15,348.18c-6.25,6.78-12.35,13.41-18.41,19.99
			c4.42,5.15,6.43,10.68,11.82,13.15C1199.69,363.61,1199.69,363.61,1188.15,348.18z"/>
		<path class="st2" d="M725.12,625.18c1.04,11.75-0.67,23.15-4.11,37.55c-5.18-14.59-0.08-26.3-1.32-37.79
			C721.5,625.02,723.31,625.1,725.12,625.18z"/>
		<path class="st3" d="M1004.64,1092.22c-144.58,0.78-242.71-68.96-272.02-173.77c-24.61-88.02-2.07-166.04,57.76-233.38
			c72.61-81.73,197.07-111.04,298.13-69.89c166.53,67.81,197.35,259.07,94.49,380.3C1128.44,1059.8,1058,1091.37,1004.64,1092.22z
			 M1202.66,841.45c-1.11-143.95-127.34-228.57-242.82-209.57C855.5,649.04,772.63,737.68,767.69,843.01
			c-6.8,144.93,115.66,240.09,239.71,222.23C1117.25,1049.44,1202.78,952.53,1202.66,841.45z"/>
		<path class="st3" d="M337.05,1092.27c-143.67,0.6-242.04-69.21-270.8-174.17c-25.58-93.37-1-176.04,67.62-242.38
			c80.47-77.8,177.82-100.19,283.07-61.74c168.67,61.61,204.88,255.83,100.69,380.32C463.03,1059.53,392.04,1091.43,337.05,1092.27z
			 M96.3,846.18c0.08,45.37,13,88.77,40.37,123.68c59.59,76.02,138.13,103.42,231.7,82.7c126.92-28.1,201.16-159.71,159.82-279.65
			c-37.46-108.66-158.34-168.78-271.8-135.16C161.09,665.98,96.13,750.56,96.3,846.18z"/>
		<path class="st2" d="M1115.34,600.46c-69.93-27.56-139.4-32.89-210.4-10.78c-70.89,22.07-125.74,65.12-164.43,126.9
			c-2.83,1.18-3.46,0.56-3.27-1.31c6.13-60.21,13.17-120.29,22.85-180.07c5.67-34.97,23.92-60.69,54.29-77.5
			c51.62-28.58,104.4-36.24,158.15-5.15c4.89,2.83,10.28,5.55,13.91,9.67c38.79,44.04,84.42,81.62,120.78,127.94
			C1109.92,593.6,1112.63,597.03,1115.34,600.46z"/>
		<path class="st2" d="M165.82,619.26c22.69-34.07,45.64-67.97,68-102.26c19.79-30.35,47.38-46.87,83.05-53.13
			c47.17-8.28,91.63-5.84,131.69,23.54c5.58,4.09,11.52,7.74,14.72,14.32c22.6,46.48,39.85,94.95,56.02,148.34
			c-111.66-87.72-226.81-97.42-347.84-30.44C169.6,619.49,167.71,619.38,165.82,619.26z"/>
		<path class="st3" d="M712.3,739.61c-45.7-23.19-88.36-22.08-129.61,9.24c-6.96-14.05-13.71-27.98-20.74-41.76
			c-3.2-6.27,1.11-9.39,4.87-12.56c16.46-13.86,36.53-19.95,57-23.07c28.37-4.33,56.34-0.53,83.47,9.42
			c8.32,3.05,12.52,7.17,10.9,16.6C715.87,710.88,714.37,724.42,712.3,739.61z"/>
		<path class="st3" d="M595.1,794.91c-5.84-19.14-3.77-28,11.37-37.22c27.12-16.52,55.98-17.76,84.56-4.55
			c20.47,9.46,24.34,26.15,13.71,51.45C670.94,770.54,633.72,773.23,595.1,794.91z"/>
		<path class="st3" d="M698.52,641.47c0.24,12.89-0.5,13.67-12.2,11.59c-26.1-4.64-52.18-7.34-78.18,0.33
			c-5.77,1.7-9.94,1.6-10.5-5.72c-0.47-6.21-2.24-13.73,7.28-14.06c27.52-0.95,54.92-5.94,82.55-2.7
			C693.89,631.66,700.53,632.76,698.52,641.47z"/>
		<path class="st3" d="M919.92,412.33c-41.92-1.81-77.95,6.41-112.03,23.83c-3.06-19.15-1.37-22.83,13.32-26.01
			c21.46-4.65,43.06-8.89,65.06-9.95C897.23,399.68,908.32,400.01,919.92,412.33z"/>
		<path class="st3" d="M411.1,443.49c-37.35-6.79-72.74-5.81-108.01,1.7c-0.23-15.68,0.58-18.27,11.77-19.11
			c25.69-1.94,51.53-3.45,77.14,1.14C399.76,428.61,408.36,430.04,411.1,443.49z"/>
		<path class="st3" d="M165.82,619.26c1.89,0.11,3.78,0.23,5.63,0.38c-1.93,2.1-4.02,3.68-7.07,2.79
			C164.87,621.37,165.35,620.32,165.82,619.26z"/>
		<path class="st4" d="M284.64,302.2c-8.76,9.56-16.16,17.93-22.51,30.25c-8.8-9.86-14.07-20.55-22.65-28.27
			c-3.91-3.52-0.92-6.47,1.14-9.57c5.19-7.77,10.21-15.66,15.85-24.34C265.07,281.05,273.16,291.92,284.64,302.2z"/>
		<path class="st1" d="M1063.16,331.11c-0.44,5.66-3.35,8.66-7.02,11.46c-13.81,10.55-24.22,23.6-29.37,40.52
			c-1.92,6.31-5.5,11.84-12.64,12.45c-6.4,0.55-9.85-4.4-13.06-9.29c-10.61-16.17-19.19-33.79-37.19-44.13
			c-6.97-4.01-6.76-11.23-0.49-17.56c16.27-16.44,28.4-35.07,30.27-59c0.43-5.57,3.7-9.55,9.34-10.32c5.84-0.8,9.39,2.89,11.46,7.9
			c2.16,5.21,3.72,10.68,6.01,15.83c7.55,16.97,17.94,31.79,34.11,41.61C1059.23,323.4,1062.59,326.42,1063.16,331.11z
			 M1034.77,332.82c-11.48-10.28-19.57-21.15-28.17-31.92c-5.63,8.68-10.65,16.56-15.85,24.34c-2.07,3.09-5.06,6.05-1.14,9.57
			c8.58,7.71,13.85,18.41,22.65,28.27C1018.61,350.75,1026.01,342.38,1034.77,332.82z"/>
		<path class="st4" d="M1034.77,332.82c-8.76,9.56-16.16,17.93-22.51,30.25c-8.8-9.86-14.07-20.55-22.65-28.27
			c-3.91-3.52-0.92-6.47,1.14-9.57c5.19-7.77,10.21-15.66,15.85-24.34C1015.2,311.67,1023.3,322.53,1034.77,332.82z"/>
		<path class="st4" d="M1214.86,585.05c-12.39-14.68-23.36-27.81-38.97-34.58c0.53-9.01,7.5-11.86,11.66-16.63
			c23.58-27.08,23.18-26.46,49.03-2.98c9.55,8.68,12.53,14.68,2.66,24.7C1231.27,563.63,1224.67,573.04,1214.86,585.05z"/>
		<path class="st4" d="M83.8,542.38c-14.24-11.49-27.09-21.85-41.23-33.25c8.2-10.36,15.81-19.97,23.42-29.58
			C103.77,509.38,103.77,509.38,83.8,542.38z"/>
		<path class="st4" d="M1188.15,348.18c11.54,15.43,11.54,15.43-6.59,33.13c-5.39-2.47-7.4-8-11.82-13.15
			C1175.8,361.59,1181.91,354.96,1188.15,348.18z"/>
		<path class="st5" d="M1202.66,841.45c0.12,111.08-85.41,207.99-195.27,223.8c-124.05,17.85-246.51-77.3-239.71-222.23
			c4.94-105.33,87.82-193.97,192.16-211.14C1075.32,612.87,1201.55,697.5,1202.66,841.45z M1143.62,820.18
			c4.9,20.46,3.37,40.62-2.74,60.58c-2.99,1.79-3.69,5.18-2.05,7.24c1.92,2.42,3.57-0.27,4.62-2.21c2.08-2.29,4.44-4.39,6.21-6.9
			c25.26-35.85,24.36-25.37-0.78-58.42c-0.44-2.62-2.65-4.1-4.64-4.06C1142.4,816.47,1142.46,818.64,1143.62,820.18z M793.67,822.06
			c7.17-0.4,10.12-6.76,14.58-10.73c29.43-26.18,61.47-48.33,97.88-63.62c44.06-18.5,89.69-25.58,136.91-15.42
			c49.98,10.75,90.23,37.59,122.9,76.49c4,4.76,6.84,11.05,14.77,14.71c-0.57-6.37-0.57-10.8-1.41-15.05
			c-13.9-70.34-52.77-121.19-120.6-145.88c-117.03-42.6-237.71,32.38-264.89,147.22c-0.94,3.95-3.73,8.36,0.04,12.48
			c-1.37-1.33-2.31-1.08-2.54,0.8c-0.06,0.52,0.48,1.6,0.72,1.59C793.64,824.6,794.19,823.64,793.67,822.06z M790.58,880.52
			c9.31,97.97,95.65,170.08,196.01,165.75c93.09-4.01,187.85-86.73,188.66-164.67C1085.42,1001.58,901.88,999.17,790.58,880.52z
			 M1000.1,750.88c-12.59-1.93-24.86-1.06-37.11,1.36c-63.67,12.59-114.54,47.16-159.55,92.16c-6.67,6.67-5.52,10.91,0.02,17.21
			c53.25,60.46,120.03,89.92,200.54,88.27c2.84-0.06,6.43,0.86,8.03-3.01C915.21,905.51,924.77,790.78,1000.1,750.88z"/>
		<path class="st5" d="M96.3,846.18c-0.17-95.62,64.79-180.2,160.08-208.43c113.46-33.61,234.35,26.5,271.8,135.16
			c41.35,119.94-32.9,251.55-159.82,279.65c-93.57,20.71-172.11-6.68-231.7-82.7C109.3,934.95,96.38,891.55,96.3,846.18z
			 M118.15,832.04c2.19-0.34,3-0.21,3.33-0.55c4.38-4.52,8.7-9.11,13.03-13.68c32.09-33.88,68.73-61.08,113.04-77
			c46.7-16.78,94.01-17.74,141.01-2.59c45.17,14.56,83.7,40.59,117.79,73.4c2.81,2.7,4.6,7.73,10.15,6.37
			c-4.79-73.01-73.13-167.31-194.59-168.26C197.74,648.76,120.88,747.92,118.15,832.04z M121.03,879.96
			c8.65,73.79,84.44,162.67,202.61,158.58c90.13-3.12,180.9-76.03,188.32-154.57C456.29,935,391,959.29,316.74,958.6
			C242.12,957.9,176.86,932.21,121.03,879.96z M317.6,749.82c-14.16-0.6-25.26,0.71-36.43,3.09
			c-61.55,13.1-107.47,49.83-147.3,96.18c-6.98,8.12-1.5,12.15,3.49,17.04c35.14,34.44,77.23,55.73,125.12,65.92
			c20.6,4.38,41.39,6.43,65.54,5.85C254.15,890.66,253.29,803.92,317.6,749.82z M465.61,804.27c9.11,36.64,3.86,67.52-15.66,96.72
			c18.01-6,51.91-33.27,60.81-47.09c3.56-5.53,0.17-8.06-2.67-11.08C496.07,830.08,483.74,817.68,465.61,804.27z"/>
		<path class="st4" d="M793.84,822.27c-3.77-4.12-0.97-8.53-0.04-12.48c27.19-114.84,147.87-189.81,264.89-147.22
			c67.83,24.69,106.7,75.53,120.6,145.88c0.84,4.26,0.84,8.68,1.41,15.05c-7.93-3.66-10.77-9.95-14.77-14.71
			c-32.67-38.9-72.91-65.74-122.9-76.49c-47.22-10.16-92.84-3.08-136.91,15.42c-36.42,15.28-68.46,37.44-97.88,63.62
			c-4.46,3.97-7.41,10.33-14.58,10.73L793.84,822.27z"/>
		<path class="st4" d="M790.58,880.52c111.3,118.65,294.84,121.06,384.67,1.08c-0.81,77.94-95.57,160.66-188.66,164.67
			C886.23,1050.6,799.89,978.49,790.58,880.52z"/>
		<path class="st2" d="M1140.89,880.76c6.1-19.96,7.64-40.12,2.74-60.55c1.76,0.11,3.5,0.19,5.25,0.27
			c25.15,33.05,26.04,22.57,0.78,58.42c-1.77,2.51-4.13,4.61-6.18,6.88C1142.64,884.1,1141.76,882.43,1140.89,880.76z"/>
		<path class="st3" d="M1140.89,880.76c0.88,1.67,1.75,3.34,2.6,5.02c-1.08,1.95-2.72,4.65-4.65,2.22
			C1137.2,885.94,1137.9,882.55,1140.89,880.76z"/>
		<path class="st3" d="M1148.88,820.48c-1.75-0.08-3.5-0.16-5.25-0.27c-1.17-1.56-1.22-3.74,0.61-3.79
			C1146.23,816.38,1148.44,817.85,1148.88,820.48z"/>
		<path class="st4" d="M793.67,822.06c0.52,1.58-0.03,2.54-1.66,2.59c-0.24,0.01-0.79-1.07-0.72-1.59c0.23-1.88,1.17-2.13,2.55-0.8
			C793.84,822.27,793.67,822.06,793.67,822.06z"/>
		<path class="st4" d="M118.15,832.04c2.73-84.12,79.59-183.27,203.77-182.3c121.46,0.95,189.8,95.25,194.59,168.26
			c-5.55,1.36-7.34-3.67-10.15-6.37c-34.09-32.81-72.62-58.84-117.79-73.4c-47.01-15.15-94.31-14.2-141.01,2.59
			c-44.31,15.92-80.96,43.12-113.04,77c-4.33,4.57-8.65,9.16-13.03,13.68C121.15,831.83,120.34,831.7,118.15,832.04z"/>
		<path class="st4" d="M121.03,879.96c55.83,52.25,121.09,77.95,195.71,78.64c74.25,0.69,139.54-23.6,195.21-74.63
			c-7.42,78.53-98.18,151.45-188.32,154.57C205.47,1042.63,129.68,953.75,121.03,879.96z"/>
	</g>
	<g class="st6">
		
			<text transform="matrix(1 0 0 1 431.9561 1562.9967)" style="display:inline;fill:#010509; font-family:'Rubik-Medium'; font-size:100.096px; letter-spacing:20;">vision</text>
	</g>
</g>
</svg>
